<svg width="340" height="321" viewBox="0 0 340 321" fill="none" xmlns="http://www.w3.org/2000/svg">
<path d="M322.912 175.201C326.3 189.831 335.777 202.335 338.263 217.326C341.65 237.577 339.74 258.333 335.488 278.26C334.732 281.827 326.552 319.735 321.219 319.735C321.039 319.735 10.6027 319.735 10.6027 319.735C10.6027 319.735 8.44066 314.114 7.71997 305.249C6.63894 291.881 16.9808 274.224 20.2599 261.396C24.4399 244.964 25.9894 229.866 21.8454 213.254C14.2062 182.661 -5.46861 153.184 1.44999 120.754C7.21549 93.7638 30.3135 74.0891 54.2403 63.3869C64.1858 58.9547 74.924 59.279 84.9416 55.4954C92.725 52.5405 99.6436 47.0633 106.13 41.9464C120.507 30.5236 133.552 16.6864 149.695 7.67777C178.487 -8.39355 217.548 3.38969 243.745 18.9926C274.05 37.0458 299.814 64.7562 313.291 97.5474C318.624 110.556 319.417 123.853 319.777 137.221C320.102 149.869 319.994 162.589 322.912 175.201Z" fill="#00AFF5"/>
<path opacity="0.7" d="M322.912 175.201C326.3 189.831 335.777 202.335 338.263 217.326C341.65 237.577 339.74 258.333 335.488 278.26C334.732 281.827 326.552 319.735 321.219 319.735C321.039 319.735 10.6027 319.735 10.6027 319.735C10.6027 319.735 8.44066 314.114 7.71997 305.249C6.63894 291.881 16.9808 274.224 20.2599 261.396C24.4399 244.964 25.9894 229.866 21.8454 213.254C14.2062 182.661 -5.46861 153.184 1.44999 120.754C7.21549 93.7638 30.3135 74.0891 54.2403 63.3869C64.1858 58.9547 74.924 59.279 84.9416 55.4954C92.725 52.5405 99.6436 47.0633 106.13 41.9464C120.507 30.5236 133.552 16.6864 149.695 7.67777C178.487 -8.39355 217.548 3.38969 243.745 18.9926C274.05 37.0458 299.814 64.7562 313.291 97.5474C318.624 110.556 319.417 123.853 319.777 137.221C320.102 149.869 319.994 162.589 322.912 175.201Z" fill="white"/>
<g opacity="0.3">
<path d="M137.227 210.731H130.958V204.389H137.227V210.731Z" stroke="black" stroke-width="0.720687"/>
<path d="M124.147 208.209H126.705V210.731H124.147V208.209Z" stroke="black" stroke-width="0.720687"/>
<path d="M7.57593 109.115V292.277" stroke="black" stroke-width="0.720687"/>
<path d="M7.57593 103.962V81.296H23.0707V75.3143H51.9342V80.9356H61.5554" stroke="black" stroke-width="0.720687"/>
<path d="M306.517 225.433V268.963H291.851V108.358H241.583V229.83H223.205V216.389H227.998V210.695H187.82V129.186H190.414V124.934H141.624V129.186H145.119V210.84H106.562V269.215H86.311V90.8091H73.0864V80.9357H65.9155" stroke="black" stroke-width="0.720687"/>
<path d="M306.517 221.109V194.12H304.571V188.895H335.056" stroke="black" stroke-width="0.720687"/>
<path d="M293.869 108.358H239.349V106.592H293.869V108.358Z" stroke="black" stroke-width="0.720687"/>
<path d="M155.605 140.5H149.479V133.942H155.605V140.5Z" stroke="black" stroke-width="0.720687"/>
<path d="M164.614 140.5H158.488V133.942H164.614V140.5Z" stroke="black" stroke-width="0.720687"/>
<path d="M173.622 140.5H167.496V133.942H173.622V140.5Z" stroke="black" stroke-width="0.720687"/>
<path d="M182.631 140.5H176.505V133.942H182.631V140.5Z" stroke="black" stroke-width="0.720687"/>
<path d="M155.605 150.95H149.479V144.356H155.605V150.95Z" stroke="black" stroke-width="0.720687"/>
<path d="M164.614 150.95H158.488V144.356H164.614V150.95Z" stroke="black" stroke-width="0.720687"/>
<path d="M173.622 150.95H167.496V144.356H173.622V150.95Z" stroke="black" stroke-width="0.720687"/>
<path d="M182.631 150.95H176.505V144.356H182.631V150.95Z" stroke="black" stroke-width="0.720687"/>
<path d="M155.605 161.364H149.479V154.77H155.605V161.364Z" stroke="black" stroke-width="0.720687"/>
<path d="M164.614 161.364H158.488V154.77H164.614V161.364Z" stroke="black" stroke-width="0.720687"/>
<path d="M173.622 161.364H167.496V154.77H173.622V161.364Z" stroke="black" stroke-width="0.720687"/>
<path d="M182.631 161.364H176.505V154.77H182.631V161.364Z" stroke="black" stroke-width="0.720687"/>
<path d="M155.605 171.778H149.479V165.22H155.605V171.778Z" stroke="black" stroke-width="0.720687"/>
<path d="M164.614 171.778H158.488V165.22H164.614V171.778Z" stroke="black" stroke-width="0.720687"/>
<path d="M173.622 171.778H167.496V165.22H173.622V171.778Z" stroke="black" stroke-width="0.720687"/>
<path d="M182.631 171.778H176.505V165.22H182.631V171.778Z" stroke="black" stroke-width="0.720687"/>
<path d="M155.605 182.192H149.479V175.634H155.605V182.192Z" stroke="black" stroke-width="0.720687"/>
<path d="M164.614 182.192H158.488V175.634H164.614V182.192Z" stroke="black" stroke-width="0.720687"/>
<path d="M173.622 182.192H167.496V175.634H173.622V182.192Z" stroke="black" stroke-width="0.720687"/>
<path d="M182.631 182.192H176.505V175.634H182.631V182.192Z" stroke="black" stroke-width="0.720687"/>
<path d="M155.605 192.642H149.479V186.048H155.605V192.642Z" stroke="black" stroke-width="0.720687"/>
<path d="M164.614 192.642H158.488V186.048H164.614V192.642Z" stroke="black" stroke-width="0.720687"/>
<path d="M173.622 192.642H167.496V186.048H173.622V192.642Z" stroke="black" stroke-width="0.720687"/>
<path d="M182.631 192.642H176.505V186.048H182.631V192.642Z" stroke="black" stroke-width="0.720687"/>
<path d="M155.605 203.056H149.479V196.462H155.605V203.056Z" stroke="black" stroke-width="0.720687"/>
<path d="M164.614 203.056H158.488V196.462H164.614V203.056Z" stroke="black" stroke-width="0.720687"/>
<path d="M173.622 203.056H167.496V196.462H173.622V203.056Z" stroke="black" stroke-width="0.720687"/>
<path d="M182.631 203.056H176.505V196.462H182.631V203.056Z" stroke="black" stroke-width="0.720687"/>
<path d="M155.605 213.47H149.479V206.912H155.605V213.47Z" stroke="black" stroke-width="0.720687"/>
<path d="M164.614 213.47H158.488V206.912H164.614V213.47Z" stroke="black" stroke-width="0.720687"/>
<path d="M173.622 213.47H167.496V206.912H173.622V213.47Z" stroke="black" stroke-width="0.720687"/>
<path d="M182.631 213.47H176.505V206.912H182.631V213.47Z" stroke="black" stroke-width="0.720687"/>
<path d="M155.605 223.019H149.479V216.425H155.605V223.019Z" stroke="black" stroke-width="0.720687"/>
<path d="M164.614 223.019H158.488V216.425H164.614V223.019Z" stroke="black" stroke-width="0.720687"/>
<path d="M173.622 223.019H167.496V216.425H173.622V223.019Z" stroke="black" stroke-width="0.720687"/>
<path d="M182.631 223.019H176.505V216.425H182.631V223.019Z" stroke="black" stroke-width="0.720687"/>
<path d="M155.605 233.433H149.479V226.839H155.605V233.433Z" stroke="black" stroke-width="0.720687"/>
<path d="M164.614 233.433H158.488V226.839H164.614V233.433Z" stroke="black" stroke-width="0.720687"/>
<path d="M173.622 233.433H167.496V226.839H173.622V233.433Z" stroke="black" stroke-width="0.720687"/>
<path d="M182.631 233.433H176.505V226.839H182.631V233.433Z" stroke="black" stroke-width="0.720687"/>
<path d="M155.605 243.847H149.479V237.289H155.605V243.847Z" stroke="black" stroke-width="0.720687"/>
<path d="M164.614 243.847H158.488V237.289H164.614V243.847Z" stroke="black" stroke-width="0.720687"/>
<path d="M173.622 243.847H167.496V237.289H173.622V243.847Z" stroke="black" stroke-width="0.720687"/>
<path d="M182.631 243.847H176.505V237.289H182.631V243.847Z" stroke="black" stroke-width="0.720687"/>
<path d="M155.605 254.261H149.479V247.703H155.605V254.261Z" stroke="black" stroke-width="0.720687"/>
<path d="M164.614 254.261H158.488V247.703H164.614V254.261Z" stroke="black" stroke-width="0.720687"/>
<path d="M173.622 254.261H167.496V247.703H173.622V254.261Z" stroke="black" stroke-width="0.720687"/>
<path d="M182.631 254.261H176.505V247.703H182.631V254.261Z" stroke="black" stroke-width="0.720687"/>
<path d="M155.605 264.711H149.479V258.117H155.605V264.711Z" stroke="black" stroke-width="0.720687"/>
<path d="M164.614 264.711H158.488V258.117H164.614V264.711Z" stroke="black" stroke-width="0.720687"/>
<path d="M173.622 264.711H167.496V258.117H173.622V264.711Z" stroke="black" stroke-width="0.720687"/>
<path d="M182.631 264.711H176.505V258.117H182.631V264.711Z" stroke="black" stroke-width="0.720687"/>
<path d="M155.605 275.125H149.479V268.53H155.605V275.125Z" stroke="black" stroke-width="0.720687"/>
<path d="M164.614 275.125H158.488V268.53H164.614V275.125Z" stroke="black" stroke-width="0.720687"/>
<path d="M173.622 275.125H167.496V268.53H173.622V275.125Z" stroke="black" stroke-width="0.720687"/>
<path d="M182.631 275.125H176.505V268.53H182.631V275.125Z" stroke="black" stroke-width="0.720687"/>
<path d="M190.811 223.019H184.649V216.425H190.811V223.019Z" stroke="black" stroke-width="0.720687"/>
<path d="M199.82 223.019H193.658V216.425H199.82V223.019Z" stroke="black" stroke-width="0.720687"/>
<path d="M208.828 223.019H202.666V216.425H208.828V223.019Z" stroke="black" stroke-width="0.720687"/>
<path d="M217.837 223.019H211.675V216.425H217.837V223.019Z" stroke="black" stroke-width="0.720687"/>
<path d="M190.811 233.433H184.649V226.839H190.811V233.433Z" stroke="black" stroke-width="0.720687"/>
<path d="M199.82 233.433H193.658V226.839H199.82V233.433Z" stroke="black" stroke-width="0.720687"/>
<path d="M208.828 233.433H202.666V226.839H208.828V233.433Z" stroke="black" stroke-width="0.720687"/>
<path d="M217.837 233.433H211.675V226.839H217.837V233.433Z" stroke="black" stroke-width="0.720687"/>
<path d="M190.811 243.847H184.649V237.289H190.811V243.847Z" stroke="black" stroke-width="0.720687"/>
<path d="M199.82 243.847H193.658V237.289H199.82V243.847Z" stroke="black" stroke-width="0.720687"/>
<path d="M208.828 243.847H202.666V237.289H208.828V243.847Z" stroke="black" stroke-width="0.720687"/>
<path d="M217.837 243.847H211.675V237.289H217.837V243.847Z" stroke="black" stroke-width="0.720687"/>
<path d="M190.811 254.261H184.649V247.703H190.811V254.261Z" stroke="black" stroke-width="0.720687"/>
<path d="M199.82 254.261H193.658V247.703H199.82V254.261Z" stroke="black" stroke-width="0.720687"/>
<path d="M208.828 254.261H202.666V247.703H208.828V254.261Z" stroke="black" stroke-width="0.720687"/>
<path d="M217.837 254.261H211.675V247.703H217.837V254.261Z" stroke="black" stroke-width="0.720687"/>
<path d="M190.811 264.711H184.649V258.117H190.811V264.711Z" stroke="black" stroke-width="0.720687"/>
<path d="M199.82 264.711H193.658V258.117H199.82V264.711Z" stroke="black" stroke-width="0.720687"/>
<path d="M208.828 264.711H202.666V258.117H208.828V264.711Z" stroke="black" stroke-width="0.720687"/>
<path d="M217.837 264.711H211.675V258.117H217.837V264.711Z" stroke="black" stroke-width="0.720687"/>
<path d="M190.811 275.125H184.649V268.53H190.811V275.125Z" stroke="black" stroke-width="0.720687"/>
<path d="M199.82 275.125H193.658V268.53H199.82V275.125Z" stroke="black" stroke-width="0.720687"/>
<path d="M208.828 275.125H202.666V268.53H208.828V275.125Z" stroke="black" stroke-width="0.720687"/>
<path d="M217.837 275.125H211.675V268.53H217.837V275.125Z" stroke="black" stroke-width="0.720687"/>
<path d="M119.931 223.019H113.805V216.425H119.931V223.019Z" stroke="black" stroke-width="0.720687"/>
<path d="M128.94 223.019H122.814V216.425H128.94V223.019Z" stroke="black" stroke-width="0.720687"/>
<path d="M137.948 223.019H131.822V216.425H137.948V223.019Z" stroke="black" stroke-width="0.720687"/>
<path d="M146.957 223.019H140.831V216.425H146.957V223.019Z" stroke="black" stroke-width="0.720687"/>
<path d="M119.931 233.433H113.805V226.839H119.931V233.433Z" stroke="black" stroke-width="0.720687"/>
<path d="M128.94 233.433H122.814V226.839H128.94V233.433Z" stroke="black" stroke-width="0.720687"/>
<path d="M137.948 233.433H131.822V226.839H137.948V233.433Z" stroke="black" stroke-width="0.720687"/>
<path d="M146.957 233.433H140.831V226.839H146.957V233.433Z" stroke="black" stroke-width="0.720687"/>
<path d="M119.931 243.847H113.805V237.289H119.931V243.847Z" stroke="black" stroke-width="0.720687"/>
<path d="M128.94 243.847H122.814V237.289H128.94V243.847Z" stroke="black" stroke-width="0.720687"/>
<path d="M137.948 243.847H131.822V237.289H137.948V243.847Z" stroke="black" stroke-width="0.720687"/>
<path d="M146.957 243.847H140.831V237.289H146.957V243.847Z" stroke="black" stroke-width="0.720687"/>
<path d="M119.931 254.261H113.805V247.703H119.931V254.261Z" stroke="black" stroke-width="0.720687"/>
<path d="M128.94 254.261H122.814V247.703H128.94V254.261Z" stroke="black" stroke-width="0.720687"/>
<path d="M137.948 254.261H131.822V247.703H137.948V254.261Z" stroke="black" stroke-width="0.720687"/>
<path d="M146.957 254.261H140.831V247.703H146.957V254.261Z" stroke="black" stroke-width="0.720687"/>
<path d="M119.931 264.711H113.805V258.117H119.931V264.711Z" stroke="black" stroke-width="0.720687"/>
<path d="M128.94 264.711H122.814V258.117H128.94V264.711Z" stroke="black" stroke-width="0.720687"/>
<path d="M137.948 264.711H131.822V258.117H137.948V264.711Z" stroke="black" stroke-width="0.720687"/>
<path d="M146.957 264.711H140.831V258.117H146.957V264.711Z" stroke="black" stroke-width="0.720687"/>
<path d="M119.931 275.125H113.805V268.53H119.931V275.125Z" stroke="black" stroke-width="0.720687"/>
<path d="M128.94 275.125H122.814V268.53H128.94V275.125Z" stroke="black" stroke-width="0.720687"/>
<path d="M137.948 275.125H131.822V268.53H137.948V275.125Z" stroke="black" stroke-width="0.720687"/>
<path d="M146.957 275.125H140.831V268.53H146.957V275.125Z" stroke="black" stroke-width="0.720687"/>
<path d="M321.147 202.588H315.021V195.993H321.147V202.588Z" stroke="black" stroke-width="0.720687"/>
<path d="M330.156 202.588H324.03V195.993H330.156V202.588Z" stroke="black" stroke-width="0.720687"/>
<path d="M321.147 213.002H315.021V206.407H321.147V213.002Z" stroke="black" stroke-width="0.720687"/>
<path d="M330.156 213.002H324.03V206.407H330.156V213.002Z" stroke="black" stroke-width="0.720687"/>
<path d="M321.147 223.415H315.021V216.857H321.147V223.415Z" stroke="black" stroke-width="0.720687"/>
<path d="M330.156 223.415H324.03V216.857H330.156V223.415Z" stroke="black" stroke-width="0.720687"/>
<path d="M321.147 233.829H315.021V227.271H321.147V233.829Z" stroke="black" stroke-width="0.720687"/>
<path d="M330.156 233.829H324.03V227.271H330.156V233.829Z" stroke="black" stroke-width="0.720687"/>
<path d="M321.147 244.279H315.021V237.685H321.147V244.279Z" stroke="black" stroke-width="0.720687"/>
<path d="M330.156 244.279H324.03V237.685H330.156V244.279Z" stroke="black" stroke-width="0.720687"/>
<path d="M321.147 254.693H315.021V248.099H321.147V254.693Z" stroke="black" stroke-width="0.720687"/>
<path d="M330.156 254.693H324.03V248.099H330.156V254.693Z" stroke="black" stroke-width="0.720687"/>
<path d="M321.147 265.107H315.021V258.549H321.147V265.107Z" stroke="black" stroke-width="0.720687"/>
<path d="M330.156 265.107H324.03V258.549H330.156V265.107Z" stroke="black" stroke-width="0.720687"/>
<path d="M321.147 275.521H315.021V268.963H321.147V275.521Z" stroke="black" stroke-width="0.720687"/>
<path d="M330.156 275.521H324.03V268.963H330.156V275.521Z" stroke="black" stroke-width="0.720687"/>
<path d="M246.304 112.141V280.062" stroke="black" stroke-width="0.720687"/>
<path d="M252.394 242.874V280.062" stroke="black" stroke-width="0.720687"/>
<path d="M252.394 163.707V238.91" stroke="black" stroke-width="0.720687"/>
<path d="M252.394 112.141V158.986" stroke="black" stroke-width="0.720687"/>
<path d="M258.483 112.141V280.062" stroke="black" stroke-width="0.720687"/>
<path d="M264.573 151.851V280.061" stroke="black" stroke-width="0.720687"/>
<path d="M264.573 112.141V147.095" stroke="black" stroke-width="0.720687"/>
<path d="M270.699 112.141V280.062" stroke="black" stroke-width="0.720687"/>
<path d="M276.789 193.003V280.062" stroke="black" stroke-width="0.720687"/>
<path d="M276.789 112.141V187.057" stroke="black" stroke-width="0.720687"/>
<path d="M282.878 112.141V280.062" stroke="black" stroke-width="0.720687"/>
<path d="M288.968 112.141V280.062" stroke="black" stroke-width="0.720687"/>
<path d="M7.93628 93.9801H86.1308" stroke="black" stroke-width="0.720687"/>
<path d="M14.2783 213.182V292.998" stroke="black" stroke-width="0.720687"/>
<path d="M14.2783 98.1961V207.236" stroke="black" stroke-width="0.720687"/>
<path d="M17.7737 150.266V292.998" stroke="black" stroke-width="0.720687"/>
<path d="M17.7737 98.1961V145.509" stroke="black" stroke-width="0.720687"/>
<path d="M28.3677 98.1961V292.998" stroke="black" stroke-width="0.720687"/>
<path d="M31.863 98.1961V292.998" stroke="black" stroke-width="0.720687"/>
<path d="M42.4573 98.1961V292.998" stroke="black" stroke-width="0.720687"/>
<path d="M45.9526 127.708V292.998" stroke="black" stroke-width="0.720687"/>
<path d="M45.9526 98.1961V121.763" stroke="black" stroke-width="0.720687"/>
<path d="M56.5466 98.1961V292.998" stroke="black" stroke-width="0.720687"/>
<path d="M60.042 284.422V292.998" stroke="black" stroke-width="0.720687"/>
<path d="M60.042 98.1961V278.08" stroke="black" stroke-width="0.720687"/>
<path d="M70.636 98.1961V292.998" stroke="black" stroke-width="0.720687"/>
<path d="M74.1313 98.1961V292.998" stroke="black" stroke-width="0.720687"/>
</g>
<path d="M44.7632 255.774C44.7632 268.062 36.3312 272.818 25.9173 272.818C15.5033 272.818 7.07129 268.062 7.07129 255.774C7.07129 243.523 15.5033 215.956 25.9173 215.956C36.3312 215.956 44.7632 243.523 44.7632 255.774Z" fill="#9AED66"/>
<path opacity="0.6" d="M44.7632 255.774C44.7632 268.062 36.3312 272.818 25.9173 272.818C15.5033 272.818 7.07129 268.062 7.07129 255.774C7.07129 243.523 15.5033 215.956 25.9173 215.956C36.3312 215.956 44.7632 243.523 44.7632 255.774Z" fill="white"/>
<path d="M10.4585 260.855L17.305 258.261L11.0711 255.126L24.0795 259.558L24.2957 254.981L13.6656 247.342L18.6023 250.081L19.8274 246.477L19.4671 250.657L24.4038 253.252L24.4759 248.063L17.6654 237.433L24.8722 246.766L25.5209 233.541L26.2055 240.892L29.7369 237.289L26.4217 243.45L25.8091 259.125L26.7821 257.107L28.0072 252.387L28.3315 256.243L30.6017 253.252L31.7908 237.865L31.8989 245.18L35.106 238.874L32.1872 246.333L31.5746 252.964L36.8356 248.063L26.1334 260.999L26.3136 263.882L27.4667 263.738L30.2774 260.567L28.9081 263.45L38.6013 258.981L34.7457 261.72L37.3762 264.026L33.6286 262.152L26.2055 266.188L26.9622 320.384H22.8903L23.9714 261.287L18.314 258.693L10.4585 260.855Z" fill="#B3B3B3"/>
<path d="M140.435 283.16C140.435 295.448 131.966 300.205 121.553 300.205C111.139 300.205 102.707 295.448 102.707 283.16C102.707 270.909 111.139 243.342 121.553 243.342C131.966 243.342 140.435 270.909 140.435 283.16Z" fill="#9AED66"/>
<path opacity="0.6" d="M140.435 283.16C140.435 295.448 131.966 300.205 121.553 300.205C111.139 300.205 102.707 295.448 102.707 283.16C102.707 270.909 111.139 243.342 121.553 243.342C131.966 243.342 140.435 270.909 140.435 283.16Z" fill="white"/>
<path d="M106.094 288.241L112.94 285.647L106.742 282.512L119.751 286.944L119.931 282.368L109.337 274.728L114.274 277.467L115.499 273.863L115.138 278.043L120.075 280.638L120.111 275.449L113.337 264.819L120.544 274.152L121.156 260.927L121.877 268.278L125.408 264.675L122.057 270.837L121.444 286.511L122.417 284.494L123.642 279.773L124.003 283.629L126.237 280.638L127.426 265.251L127.534 272.566L130.741 266.26L127.858 273.719L127.246 280.35L132.471 275.449L121.769 288.385L121.949 291.268L123.102 291.124L125.949 287.953L124.543 290.836L134.237 286.367L130.417 289.106L133.047 291.412L129.264 289.538L121.841 293.574L122.237 320.059H119.066L119.607 288.674L113.985 286.079L106.094 288.241Z" fill="#B3B3B3"/>
<path d="M301.328 255.774C301.328 268.062 292.896 272.818 282.482 272.818C272.068 272.818 263.636 268.062 263.636 255.774C263.636 243.523 272.068 215.956 282.482 215.956C292.896 215.956 301.328 243.523 301.328 255.774Z" fill="#9AED66"/>
<path opacity="0.6" d="M301.328 255.774C301.328 268.062 292.896 272.818 282.482 272.818C272.068 272.818 263.636 268.062 263.636 255.774C263.636 243.523 272.068 215.956 282.482 215.956C292.896 215.956 301.328 243.523 301.328 255.774Z" fill="white"/>
<path d="M267.023 260.855L273.869 258.261L267.636 255.126L280.644 259.558L280.86 254.981L270.23 247.342L275.167 250.081L276.392 246.477L276.032 250.657L280.968 253.252L281.04 248.063L274.23 237.433L281.437 246.766L282.085 233.541L282.77 240.892L286.301 237.289L282.986 243.45L282.374 259.125L283.347 257.107L284.572 252.387L284.896 256.243L287.166 253.252L288.355 237.865L288.463 245.18L291.67 238.874L288.752 246.333L288.139 252.964L293.4 248.063L282.698 260.999L282.878 263.882L284.031 263.738L286.842 260.567L285.473 263.449L295.166 258.981L291.31 261.72L293.941 264.026L290.193 262.152L282.77 266.188L283.527 320.384H279.455L280.536 261.287L274.878 258.693L267.023 260.855Z" fill="#B3B3B3"/>
<g opacity="0.3">
<path d="M318.372 58.4502H258.339C258.339 58.4502 259.996 57.2611 261.438 56.2881C262.843 55.3513 265.221 56.2881 266.411 56.2881C267.6 56.2881 267.6 54.8828 270.23 53.2252C272.825 51.5676 275.671 54.1621 277.797 53.6937C279.923 53.2252 278.77 49.9101 281.365 48.2525C283.959 46.5589 284.68 49.1894 287.31 47.5318C289.905 45.8742 287.31 38.9917 297.004 39.2079C306.733 39.4601 307.237 46.0904 307.237 46.0904C314.336 49.1894 310.769 52.2523 311.742 53.4414C312.679 54.6306 313.868 53.4414 316.462 54.8828C319.093 56.2881 318.372 58.4502 318.372 58.4502V58.4502Z" stroke="black" stroke-width="0.720687"/>
<path d="M64.6542 56.0359H21.5571C21.5571 56.0359 22.7463 55.1711 23.7913 54.4865C24.8002 53.8018 26.4938 54.4865 27.3587 54.4865C28.1874 54.4865 28.1874 53.4775 30.0612 52.2884C31.935 51.0992 33.989 52.973 35.5385 52.6127C37.0519 52.2884 36.2231 49.8741 38.0969 48.6849C39.9707 47.4958 40.4752 49.3696 42.349 48.1805C44.2227 46.9913 42.349 42.0546 49.3396 42.2348C56.2942 42.3789 56.6546 47.1715 56.6546 47.1715C61.7715 49.3696 59.213 51.6037 59.8977 52.4325C60.5823 53.2973 61.4111 52.4325 63.2849 53.4775C65.1587 54.4865 64.6542 56.0359 64.6542 56.0359V56.0359Z" stroke="black" stroke-width="0.720687"/>
<path d="M281.617 47.2796H244.177C244.177 47.2796 245.222 46.5589 246.087 45.9463C246.988 45.3698 248.465 45.9463 249.186 45.9463C249.943 45.9463 249.943 45.0815 251.564 44.0365C253.186 42.9915 254.988 44.6131 256.321 44.3248C257.654 44.0365 256.897 41.9465 258.519 40.9376C260.176 39.8926 260.609 41.5141 262.23 40.4691C263.852 39.4241 262.23 35.136 268.32 35.2802C274.374 35.4603 274.662 39.6043 274.662 39.6043C279.095 41.5141 276.896 43.4239 277.473 44.1806C278.086 44.9013 278.806 44.1806 280.428 45.0815C282.085 45.9463 281.617 47.2796 281.617 47.2796V47.2796Z" stroke="black" stroke-width="0.720687"/>
</g>
<path d="M245.871 95.6016V102.484H248.249V118.015H245.871V262.188C245.871 273.647 236.574 282.944 225.079 282.944H113.589C102.13 282.944 92.833 273.647 92.833 262.188V35.6044C92.833 24.1454 102.13 14.8486 113.589 14.8486H225.079C236.574 14.8486 245.871 24.1454 245.871 35.6044V69.2965H248.249V95.6016H245.871Z" fill="#707070" stroke="#054752" stroke-width="0.720687" stroke-linejoin="round"/>
<path d="M221.476 280.097H117.228C105.085 280.097 95.2473 270.224 95.2473 258.08V39.7122C95.2473 27.5687 105.085 17.6953 117.228 17.6953H221.476C233.619 17.6953 243.457 27.5687 243.457 39.7122V258.08C243.457 270.224 233.619 280.097 221.476 280.097Z" fill="#054752" stroke="#054752" stroke-width="0.720687" stroke-linejoin="round"/>
<path d="M239.349 40.3608V247.342C239.349 258.837 230.052 268.098 218.557 268.098H120.111C108.652 268.098 99.3552 258.837 99.3552 247.342V40.3608C99.3552 28.9019 108.652 19.605 120.111 19.605H161.262L161.334 19.7492C162.523 24.1454 165.334 26.9921 168.433 26.9921H170.235C173.334 26.9921 176.144 24.1454 177.37 19.7492L177.406 19.605H218.557C230.052 19.605 239.349 28.9019 239.349 40.3608Z" fill="#00AFF5" stroke="#054752" stroke-width="0.720687" stroke-linecap="round" stroke-linejoin="round"/>
<path opacity="0.5" d="M239.349 40.3608V247.342C239.349 258.837 230.052 268.098 218.557 268.098H120.111C108.652 268.098 99.3552 258.837 99.3552 247.342V40.3608C99.3552 28.9019 108.652 19.605 120.111 19.605H161.262L161.334 19.7492C162.523 24.1454 165.334 26.9921 168.433 26.9921H170.235C173.334 26.9921 176.144 24.1454 177.37 19.7492L177.406 19.605H218.557C230.052 19.605 239.349 28.9019 239.349 40.3608Z" fill="white" stroke="#054752" stroke-width="0.720687" stroke-linecap="round" stroke-linejoin="round"/>
<path d="M112.652 98.7726L103.175 95.0971L104.76 62.486L115.823 77.7285L112.652 98.7726Z" fill="#00AFF5"/>
<path d="M140.615 114.808L116.292 102.232L118.958 80.3591L141.047 106.664L140.615 114.808Z" fill="#00AFF5"/>
<path d="M233.331 78.4493C230.52 81.296 225.98 81.5122 222.917 78.8817L201.585 60.6483C198.378 57.9097 198.017 53.045 200.792 49.838L225.836 20.9024C233.727 23.8572 239.349 31.4244 239.349 40.361V72.3595L233.331 78.4493Z" fill="#00AFF5"/>
<path d="M138.957 147.671L112.111 136.104L113.769 122.735L139.678 133.654L138.957 147.671Z" fill="#00AFF5"/>
<path d="M115.823 106.016L140.434 118.88L139.858 129.69L114.345 118.015L115.823 106.016Z" fill="#00AFF5"/>
<path d="M195.747 178.697L213.62 201.831L161.046 202.876L195.747 178.697Z" fill="#00AFF5"/>
<path fill-rule="evenodd" clip-rule="evenodd" d="M221.223 146.95C229.907 146.95 236.97 153.977 236.97 162.661C236.97 171.31 229.907 178.372 221.223 178.372C212.575 178.372 205.512 171.31 205.512 162.661C205.512 153.977 212.575 146.95 221.223 146.95ZM221.223 148.392C213.368 148.392 206.99 154.806 206.99 162.661C206.99 170.517 213.368 176.931 221.223 176.931C229.115 176.931 235.493 170.517 235.493 162.661C235.493 154.806 229.115 148.392 221.223 148.392Z" fill="white"/>
<path fill-rule="evenodd" clip-rule="evenodd" d="M239.349 126.339L189.009 155.202L239.349 214.839V217.109L196.9 166.805L99.3552 242.261V240.424L147.101 203.488L135.39 180.066L99.3552 196.75V195.128L134.741 178.769L126.237 161.725L99.3552 169.868V168.319L125.3 160.499L99.3552 143.707V141.942L126.705 159.671C126.825 159.743 126.922 159.839 126.994 159.959V159.995L141.407 155.635L144.542 105.042C144.542 104.946 144.554 104.862 144.578 104.79L99.3552 51.1711V48.937L113.841 66.0894L120.327 60.5401C124.904 56.6484 131.786 56.9727 136.002 61.2608L160.037 85.692L164.325 80.4671L109.733 22.3797C110.166 22.1154 110.61 21.8752 111.066 21.659L165.262 79.314L213.728 19.605H215.638L181.586 61.477L225.62 97.151L239.349 84.8633V86.8091L197.261 124.537C197.152 124.681 197.008 124.717 196.828 124.717V124.753L180.649 125.762L201.332 146.446L239.349 124.681V126.339ZM204.035 81.5121L193.621 92.3944L212.035 109.331L224.539 98.1239L204.035 81.5121ZM161.082 86.737L196.828 122.988L210.954 110.304L192.108 92.971C191.964 92.8269 191.855 92.6467 191.855 92.4665C191.855 92.2503 191.927 92.0701 192.072 91.926L202.882 80.5752L180.685 62.594L161.082 86.737ZM146.452 104.754L163.857 125.366L195.135 123.384L160.145 87.8901L146.452 104.754ZM145.515 103.601L159.136 86.8091L134.957 62.2337C131.282 58.5221 125.264 58.2339 121.264 61.6571L114.778 67.1704L145.515 103.601ZM142.885 155.166L178.126 144.5L145.912 106.34L142.885 155.166ZM179.135 145.725L143.317 156.572L153.01 170.337L186.739 154.734L179.135 145.725ZM136.074 178.156L151.677 170.949L141.84 157.004L127.642 161.292L136.074 178.156ZM164.866 189.723L152.506 172.138L136.723 179.453L148.29 202.551L164.866 189.723ZM187.675 155.887L153.839 171.526L166.019 188.822L195.927 165.688L187.675 155.887ZM199.999 147.203L178.919 126.087L179.135 125.834L165.01 126.735L188.036 154.049L199.999 147.203Z" fill="white"/>
<path fill-rule="evenodd" clip-rule="evenodd" d="M221.223 156.391C224.682 156.391 227.493 159.202 227.493 162.661C227.493 166.121 224.682 168.895 221.223 168.895C217.8 168.895 214.989 166.121 214.989 162.661C214.989 159.202 217.8 156.391 221.223 156.391ZM221.223 157.869C218.593 157.869 216.431 160.031 216.431 162.661C216.431 165.292 218.593 167.454 221.223 167.454C223.89 167.454 226.016 165.292 226.016 162.661C226.016 160.031 223.89 157.869 221.223 157.869Z" fill="white"/>
<path d="M239.349 196.57V247.342C239.349 258.837 230.052 268.098 218.557 268.098H120.111C108.652 268.098 99.3552 258.837 99.3552 247.342V196.57H239.349Z" fill="white" stroke="#054752" stroke-width="0.720687" stroke-linejoin="round"/>
<path d="M234.304 215.127C234.448 215.344 234.556 215.812 234.16 216.064C234.136 216.064 234.124 216.064 234.124 216.064H232.646H232.106C231.853 217.398 231.061 218.371 230.196 218.371C230.172 218.371 230.148 218.371 230.124 218.371C230.1 218.371 230.088 218.371 230.088 218.371H228.646C227.565 218.371 226.628 217.398 226.268 216.064H224.034C223.782 217.398 223.025 218.371 222.124 218.371C222.1 218.371 222.064 218.371 222.016 218.371H220.611C219.494 218.371 218.557 217.398 218.196 216.064H213.728H213.152C212.791 217.398 211.818 218.371 210.701 218.371H208.755C207.746 218.371 206.882 217.578 206.449 216.461H202.305C202.281 216.461 202.269 216.461 202.269 216.461L201.945 216.317C201.549 217.506 200.648 218.371 199.603 218.371H197.621C196.576 218.371 195.639 217.47 195.243 216.208H194.306L193.873 216.425C193.849 216.449 193.837 216.461 193.837 216.461H193.189C193.117 216.461 193.08 216.425 193.08 216.353V212.209C193.08 212.209 193.08 211.992 193.044 211.704C192.972 211.38 193.585 210.875 193.765 210.731C193.765 210.623 193.801 210.335 193.981 210.047C194.089 209.794 194.27 209.542 194.558 209.362C195.17 208.857 200.792 207.308 201.044 207.236C201.26 207.128 207.458 204.425 208.575 204.137C210.161 203.741 210.954 203.705 211.602 203.669C211.77 203.669 211.938 203.657 212.107 203.632C213.548 203.488 215.134 203.524 215.17 203.524C215.206 203.524 219.458 203.56 222.304 203.741C225.692 203.921 226.809 204.677 227.421 205.074C227.565 205.146 227.673 205.218 227.782 205.254C228.142 205.434 229.007 205.975 229.799 206.479C230.376 206.84 230.917 207.2 231.277 207.38C231.889 207.74 232.214 207.885 232.502 208.029C232.622 208.077 232.73 208.125 232.826 208.173C233.151 208.317 233.295 208.677 233.367 208.857C233.403 208.857 233.511 208.821 233.583 208.857C233.655 208.857 233.763 208.857 233.799 208.93C233.871 208.978 233.907 209.062 233.907 209.182C233.907 209.206 233.907 209.23 233.907 209.254C233.907 209.278 233.895 209.302 233.871 209.326C233.871 209.326 233.871 209.338 233.871 209.362C233.871 209.386 233.871 209.398 233.871 209.398C233.871 209.422 233.871 209.446 233.871 209.47C233.871 209.47 233.871 209.482 233.871 209.506C233.871 209.53 233.871 209.554 233.871 209.578C233.847 209.578 233.835 209.59 233.835 209.614C233.835 209.638 233.835 209.662 233.835 209.686C233.835 209.686 233.835 209.698 233.835 209.722C233.835 209.746 233.835 209.77 233.835 209.794C233.811 209.794 233.799 209.806 233.799 209.83C233.799 209.854 233.799 209.878 233.799 209.902C233.799 209.926 233.799 209.939 233.799 209.939C233.799 209.963 233.787 209.987 233.763 210.011C233.763 210.035 233.763 210.047 233.763 210.047C233.763 210.071 233.763 210.095 233.763 210.119C233.763 210.119 233.763 210.131 233.763 210.155C233.739 210.179 233.727 210.203 233.727 210.227C233.727 210.227 233.727 210.239 233.727 210.263C233.727 210.263 233.727 210.275 233.727 210.299C233.727 210.323 233.727 210.335 233.727 210.335C233.703 210.359 233.691 210.383 233.691 210.407C233.691 210.407 233.691 210.419 233.691 210.443C233.691 210.443 233.691 210.455 233.691 210.479C233.691 210.503 233.679 210.527 233.655 210.551C233.691 210.623 233.799 210.911 234.16 211.344C234.52 211.776 234.556 211.884 234.592 212.209C234.616 212.257 234.628 212.317 234.628 212.389C234.736 212.821 234.376 214.839 234.304 215.127Z" fill="#054752"/>
<path d="M219.061 204.677C221.548 204.497 223.962 204.461 225.223 204.894C226.448 205.29 229.944 207.452 229.691 207.74C229.475 208.029 227.89 208.353 227.89 208.353C227.89 208.353 215.386 208.353 214.953 208.353C214.557 208.353 212.935 208.101 212.899 207.957C212.827 207.848 215.71 205.939 215.71 205.939C215.71 205.939 217.223 204.822 219.061 204.677Z" fill="white"/>
<path d="M208.395 204.461C208.395 204.461 209.224 204.245 211.134 204.245C213.044 204.245 216.323 204.497 216.323 204.497C216.323 204.497 215.926 204.677 214.953 205.29C213.98 205.903 213.368 206.119 212.287 206.803C211.242 207.524 209.945 207.416 209.945 207.416H201.116L208.395 204.461Z" fill="white"/>
<path d="M133.84 207.272C133.84 210.659 130.057 211.884 130.021 214.479V214.659H133.732V215.776H128.795V214.803C128.795 211.2 132.615 210.479 132.615 207.308C132.615 206.155 132.219 205.542 131.282 205.542C130.381 205.542 129.985 206.227 129.985 207.2V208.209H128.795V207.308C128.795 205.578 129.588 204.425 131.318 204.425C133.083 204.425 133.84 205.542 133.84 207.272Z" fill="#054752"/>
<path d="M141.659 215.776H140.434L138.597 206.84V215.776H137.479V204.533H139.245L141.083 213.506L142.849 204.533H144.614V215.776H143.425V206.731L141.659 215.776Z" fill="#054752"/>
<path d="M147.137 204.533V215.776H145.912V204.533H147.137Z" fill="#054752"/>
<path d="M149.551 215.776H148.434V204.533H150.02L152.614 212.677V204.533H153.731V215.776H152.434L149.551 206.695V215.776Z" fill="#054752"/>
<path d="M122.381 210.263C122.381 214.299 119.066 217.614 114.994 217.614C110.958 217.614 107.643 214.299 107.643 210.263C107.643 206.191 110.958 202.876 114.994 202.876C116.904 202.876 118.598 203.596 119.895 204.75C121.408 206.083 122.381 208.065 122.381 210.263Z" fill="white" stroke="#054752" stroke-width="0.720687" stroke-linejoin="round"/>
<path d="M119.895 204.75L114.994 210.263V202.876C116.904 202.876 118.598 203.597 119.895 204.75Z" fill="#054752"/>
<path d="M108.904 227.199H166.667" stroke="#054752" stroke-width="0.720687" stroke-linecap="round" stroke-linejoin="round"/>
<path d="M108.904 232.028H166.667" stroke="#054752" stroke-width="0.720687" stroke-linecap="round" stroke-linejoin="round"/>
<path d="M108.904 236.892H166.667" stroke="#054752" stroke-width="0.720687" stroke-linecap="round" stroke-linejoin="round"/>
<path d="M239.349 40.3608V44.0724H99.3552V40.3608C99.3552 28.9019 108.652 19.605 120.111 19.605H161.262L161.334 19.7492C162.523 24.1454 165.334 26.9921 168.433 26.9921H170.235C173.334 26.9921 176.144 24.1454 177.37 19.7492L177.406 19.605H218.557C230.052 19.605 239.349 28.9019 239.349 40.3608Z" fill="white" stroke="#054752" stroke-width="0.720687" stroke-linejoin="round"/>
<path d="M168.901 22.5238C167.82 22.5238 166.956 21.659 166.956 20.578C166.956 19.497 167.82 18.6321 168.901 18.6321C169.982 18.6321 170.847 19.497 170.847 20.578C170.847 21.659 169.982 22.5238 168.901 22.5238Z" fill="#707070"/>
<path d="M111.787 28.0731C111.787 30.019 109.589 30.7396 109.553 32.2531V32.3612H111.715V33.0098H108.832V32.4333C108.832 30.3433 111.066 29.9109 111.066 28.0731C111.066 27.4245 110.85 27.0641 110.309 27.0641C109.769 27.0641 109.517 27.4245 109.517 28.0371V28.6136H108.832V28.0731C108.832 27.0641 109.3 26.4155 110.309 26.4155C111.318 26.4155 111.787 27.0641 111.787 28.0731Z" fill="#054752"/>
<path d="M115.354 28.0371V28.2172C115.354 28.9019 115.102 29.3703 114.562 29.5505C115.138 29.7667 115.354 30.2712 115.354 30.9198V31.4243C115.354 32.4333 114.922 33.0819 113.877 33.0819C112.904 33.0819 112.436 32.4333 112.436 31.4243V30.9559H113.12V31.4603C113.12 32.0729 113.336 32.3972 113.877 32.3972C114.417 32.3972 114.634 32.0729 114.634 31.3883V30.8838C114.634 30.2352 114.381 29.9469 113.805 29.9109H113.445V29.2622H113.841C114.345 29.2622 114.634 28.9379 114.634 28.3614V28.0731C114.634 27.3885 114.417 27.0641 113.877 27.0641C113.336 27.0641 113.12 27.4245 113.12 28.001V28.3614H112.436V28.0371C112.436 27.0641 112.904 26.4155 113.877 26.4155C114.922 26.4155 115.354 27.0641 115.354 28.0371Z" fill="#054752"/>
<path d="M116.795 28.5416V29.4424H116.075V28.5416H116.795ZM116.795 32.109V33.0098H116.111V32.109H116.795Z" fill="#054752"/>
<path d="M118.273 29.1181C118.465 28.7577 118.789 28.5776 119.246 28.5776C120.075 28.5776 120.435 29.1902 120.435 30.127V31.4243C120.435 32.4332 119.966 33.0819 118.957 33.0819C117.985 33.0819 117.516 32.4332 117.516 31.4243V30.9919H118.201V31.4603C118.201 32.0729 118.417 32.3972 118.957 32.3972C119.462 32.3972 119.714 32.0729 119.714 31.4603V30.1991C119.714 29.6226 119.462 29.2622 118.957 29.2622C118.561 29.2622 118.273 29.4784 118.201 29.9469V30.091H117.516L117.696 26.4515H120.291V27.1362H118.345L118.273 29.1181Z" fill="#054752"/>
<path fill-rule="evenodd" clip-rule="evenodd" d="M124.074 28.0371V28.1452H123.39V28.001C123.39 27.3885 123.173 27.0641 122.633 27.0641C122.056 27.0641 121.84 27.4245 121.84 28.1091V29.5866C122.02 29.1181 122.381 28.8659 122.885 28.8659C123.714 28.8659 124.11 29.4784 124.11 30.4153V31.4243C124.11 32.4333 123.606 33.0819 122.597 33.0819C121.588 33.0819 121.083 32.4333 121.083 31.4243V28.0731C121.083 27.0641 121.552 26.4155 122.597 26.4155C123.606 26.4155 124.074 27.0281 124.074 28.0371ZM121.84 30.4874V31.4603C121.84 32.0729 122.056 32.3972 122.597 32.3972C123.137 32.3972 123.39 32.0729 123.39 31.4603V30.4874C123.39 29.9109 123.137 29.5505 122.597 29.5505C122.056 29.5505 121.84 29.9109 121.84 30.4874Z" fill="#054752"/>
<path d="M195.494 32.9377H193.657V28.3253H195.494V32.9377Z" fill="#054752"/>
<path d="M197.945 32.9377H196.107V27.3884H197.945V32.9377Z" fill="#054752"/>
<path d="M200.431 32.9377H198.558V26.7397H200.431V32.9377Z" fill="#054752"/>
<path d="M202.882 32.9377H201.044V25.5867H202.882V32.9377Z" fill="#054752"/>
<path fill-rule="evenodd" clip-rule="evenodd" d="M225.727 32.8296H214.665V26.0551H225.727V32.8296ZM215.277 32.217H225.115V26.6677H215.277V32.217Z" fill="#054752"/>
<path d="M222.052 31.5324H216.178V27.3163H222.052V31.5324Z" fill="#054752"/>
<path d="M226.736 30.2351H225.367V28.6496H226.736V30.2351Z" fill="#054752"/>
<path d="M210.593 31.3522C210.521 31.3522 210.449 31.3282 210.377 31.2801C208.106 29.9469 206.629 31.172 206.557 31.2441C206.413 31.3882 206.125 31.3882 205.98 31.2081C205.836 31.0279 205.872 30.7756 206.016 30.6315C206.089 30.5594 207.998 28.9019 210.809 30.5594C210.989 30.7036 211.061 30.9558 210.953 31.136C210.881 31.2801 210.737 31.3522 210.593 31.3522Z" fill="#054752"/>
<path d="M211.422 29.9468C211.35 29.9468 211.278 29.9348 211.206 29.9108C207.963 27.9649 205.764 29.8387 205.728 29.8387C205.584 29.9829 205.296 29.9829 205.152 29.8027C205.008 29.6225 205.008 29.3703 205.188 29.2261C205.224 29.1901 207.854 26.956 211.638 29.1901C211.818 29.2982 211.89 29.5504 211.782 29.7667C211.71 29.8748 211.566 29.9468 211.422 29.9468Z" fill="#054752"/>
<path d="M212.178 28.3253C212.106 28.3253 212.034 28.3133 211.962 28.2893C207.854 25.8389 205.08 28.1451 204.972 28.2532C204.791 28.3974 204.539 28.3613 204.395 28.1812C204.251 28.037 204.251 27.7848 204.431 27.6046C204.467 27.6046 207.746 24.7939 212.395 27.5686C212.575 27.6767 212.647 27.9289 212.539 28.1451C212.467 28.2532 212.323 28.3253 212.178 28.3253Z" fill="#054752"/>
<path d="M209.332 32.0368C209.332 32.6134 208.863 33.0818 208.323 33.0818C207.746 33.0818 207.278 32.6134 207.278 32.0368C207.278 31.4603 207.746 30.9918 208.323 30.9918C208.863 30.9918 209.332 31.4603 209.332 32.0368Z" fill="#054752"/>
<path d="M201.765 59.9275C201.873 60.1437 201.945 60.5401 201.621 60.7563C201.621 60.7563 201.609 60.7563 201.585 60.7563H200.323H199.855C199.639 61.9094 198.99 62.7382 198.197 62.7382C198.173 62.7382 198.161 62.7382 198.161 62.7382C198.137 62.7382 198.125 62.7382 198.125 62.7382H196.9C195.963 62.7382 195.134 61.9094 194.846 60.7563H192.936C192.684 61.9094 192.035 62.7382 191.279 62.7382C191.255 62.7382 191.231 62.7382 191.207 62.7382C191.207 62.7382 191.195 62.7382 191.171 62.7382H189.981C189.009 62.7382 188.216 61.9094 187.927 60.7563H184.072H183.567C183.243 61.9094 182.45 62.7382 181.477 62.7382H179.82C178.955 62.7382 178.198 62.0535 177.838 61.0806H174.234L173.946 60.9725C173.586 62.0175 172.829 62.7382 171.928 62.7382H170.235C169.334 62.7382 168.541 61.9454 168.181 60.8644H167.388L167.028 61.0806C167.004 61.0806 166.98 61.0806 166.955 61.0806H166.415C166.379 61.0806 166.343 61.0446 166.343 61.0085V57.4411C166.343 57.4411 166.343 57.261 166.307 57.0087C166.235 56.7205 166.775 56.288 166.919 56.1799C166.919 56.0718 166.955 55.8196 167.1 55.6034C167.208 55.3872 167.352 55.171 167.568 54.9908C168.145 54.5944 172.937 53.2251 173.153 53.1531C173.37 53.081 178.667 50.7748 179.64 50.5225C181.009 50.1982 181.694 50.1262 182.234 50.0901C182.378 50.0901 182.522 50.0901 182.666 50.0901C183.928 49.946 185.297 49.982 185.297 49.982C185.333 49.982 188.972 50.0181 191.459 50.1622C194.342 50.3424 195.315 50.955 195.855 51.3153C195.975 51.3874 196.071 51.4354 196.143 51.4594C196.468 51.6036 197.188 52.072 197.909 52.5405C198.377 52.8287 198.846 53.117 199.134 53.2972C199.675 53.6215 199.963 53.7296 200.179 53.8377C200.299 53.8858 200.395 53.9338 200.467 53.9818C200.756 54.126 200.9 54.4143 200.936 54.5584C200.984 54.5584 201.044 54.5584 201.116 54.5584C201.188 54.5584 201.26 54.5584 201.332 54.6305C201.38 54.6785 201.404 54.7506 201.404 54.8467C201.404 54.8467 201.404 54.8587 201.404 54.8827C201.404 54.9067 201.404 54.9187 201.404 54.9187C201.404 54.9428 201.404 54.9548 201.404 54.9548C201.404 54.9788 201.404 54.9908 201.404 54.9908C201.404 55.0148 201.392 55.0268 201.368 55.0268C201.368 55.0509 201.368 55.0629 201.368 55.0629C201.368 55.0869 201.368 55.1109 201.368 55.1349C201.368 55.1349 201.368 55.147 201.368 55.171C201.368 55.195 201.368 55.207 201.368 55.207C201.368 55.231 201.368 55.2551 201.368 55.2791C201.344 55.2791 201.332 55.2911 201.332 55.3151C201.332 55.3391 201.332 55.3512 201.332 55.3512C201.332 55.3752 201.332 55.3992 201.332 55.4232C201.332 55.4232 201.332 55.4352 201.332 55.4593C201.308 55.4833 201.296 55.4953 201.296 55.4953C201.296 55.5193 201.296 55.5433 201.296 55.5674C201.296 55.5674 201.296 55.5794 201.296 55.6034C201.296 55.6034 201.296 55.6154 201.296 55.6394C201.272 55.6635 201.26 55.6755 201.26 55.6755C201.26 55.6995 201.26 55.7235 201.26 55.7475C201.26 55.7716 201.26 55.7956 201.26 55.8196C201.26 55.8196 201.26 55.8316 201.26 55.8556C201.236 55.8556 201.224 55.8676 201.224 55.8917C201.224 55.8917 201.224 55.9037 201.224 55.9277C201.224 55.9277 201.224 55.9397 201.224 55.9637C201.224 55.9878 201.212 56.0118 201.188 56.0358C201.224 56.0718 201.332 56.3241 201.621 56.6844C201.945 57.0808 201.945 57.1889 202.017 57.4411C202.017 57.4892 202.017 57.5372 202.017 57.5853C202.125 57.9817 201.801 59.7113 201.765 59.9275Z" fill="#054752"/>
<path d="M188.684 50.9909C190.774 50.8107 192.864 50.7747 193.945 51.135C195.026 51.4954 197.981 53.3692 197.801 53.6214C197.585 53.8376 196.251 54.1259 196.251 54.1259C196.251 54.1259 185.477 54.1259 185.153 54.1259C184.792 54.1259 183.387 53.9097 183.351 53.8016C183.315 53.6935 185.765 52.0719 185.765 52.0719C185.765 52.0719 187.099 51.099 188.684 50.9909Z" fill="white"/>
<path d="M179.496 50.7747C179.496 50.7747 180.216 50.5945 181.838 50.5945C183.459 50.5945 186.27 50.8107 186.27 50.8107C186.27 50.8107 185.982 50.9909 185.153 51.4954C184.288 51.9999 183.748 52.2161 182.847 52.8287C181.91 53.4052 180.793 53.3332 180.793 53.3332H173.226L179.496 50.7747Z" fill="white"/>
<g filter="url(#filter0_i_1134_1974)">
<path fill-rule="evenodd" clip-rule="evenodd" d="M136.471 157.04C135.101 158.95 126.633 162.697 126.633 162.697C126.633 162.697 124.111 158.085 125.48 156.175C126.849 154.265 130.417 152.932 133.444 153.184C136.507 153.401 137.84 155.13 136.471 157.04ZM133.191 156.788C133.732 156.031 133.191 155.346 131.966 155.238C130.741 155.13 129.336 155.671 128.795 156.427C128.255 157.22 128.795 157.905 129.984 158.013C131.209 158.085 132.615 157.544 133.191 156.788Z" fill="#84DB92"/>
</g>
<path fill-rule="evenodd" clip-rule="evenodd" d="M133.768 149.761C133.768 153.725 126.633 162.337 126.633 162.337C126.633 162.337 119.462 153.725 119.462 149.761C119.462 145.833 122.669 142.626 126.633 142.626C130.561 142.626 133.768 145.833 133.768 149.761ZM129.48 149.761C129.48 148.212 128.219 146.914 126.633 146.914C125.048 146.914 123.75 148.212 123.75 149.761C123.75 151.347 125.048 152.644 126.633 152.644C128.219 152.644 129.48 151.347 129.48 149.761Z" fill="#09B825" stroke="#09B825" stroke-width="0.720687" stroke-linecap="round" stroke-linejoin="round"/>
<path d="M179.82 62.7382L179.099 63.567" stroke="#054752" stroke-width="1.44137" stroke-linecap="round" stroke-linejoin="round"/>
<path d="M177.73 65.2246L147.137 101.691C146.164 102.808 146.164 104.466 147.065 105.583L176.325 142.23C177.658 143.924 176.901 146.446 174.847 147.095L132.075 160.68" stroke="#054752" stroke-width="1.44137" stroke-linecap="round" stroke-linejoin="round" stroke-dasharray="1.44 1.44"/>
<path d="M131.029 161.004L130.021 161.328" stroke="#054752" stroke-width="1.44137" stroke-linecap="round" stroke-linejoin="round"/>
<path d="M207.926 94.1602V114.556H168.613V107.781L152.614 99.9977L168.613 102.16V94.1602H207.926Z" fill="#054752"/>
<path fill-rule="evenodd" clip-rule="evenodd" d="M172.793 101.511C172.793 99.7816 173.622 98.6645 175.351 98.6645C177.081 98.6645 177.946 99.7816 177.946 101.511V107.313C177.946 109.006 177.081 110.159 175.351 110.159C173.622 110.159 172.793 109.006 172.793 107.313V101.511ZM174.018 107.385C174.018 108.394 174.451 109.006 175.351 109.006C176.252 109.006 176.685 108.394 176.685 107.385V101.439C176.685 100.394 176.252 99.8176 175.351 99.8176C174.451 99.8176 174.018 100.394 174.018 101.439V107.385Z" fill="white"/>
<path d="M180.324 108.466V110.015H179.135V108.466H180.324Z" fill="white"/>
<path fill-rule="evenodd" clip-rule="evenodd" d="M186.162 107.781V110.015H184.936V107.781H181.333V106.628L184.792 98.8086H186.162V106.628H187.062V107.781H186.162ZM182.486 106.628H184.936V101.151L182.486 106.628Z" fill="white"/>
<path d="M192.432 105.151L191.783 106.268V110.015H190.522V98.8086H191.783V104.214L194.774 98.8086H196.035L193.189 103.925L196.107 110.015H194.846L192.432 105.151Z" fill="white"/>
<path d="M201.224 110.015H200.035L198.161 101.079V110.015H197.08V98.8086H198.81L200.684 107.781L202.449 98.8086H204.215V110.015H203.026V101.007L201.224 110.015Z" fill="white"/>
<path d="M88.365 308.42L89.7703 312.384C89.7703 312.384 93.9863 314.042 94.707 315.231C95.3917 316.384 95.3917 320.384 95.3917 320.384H78.0231C78.0231 320.384 77.5547 316.636 77.5547 314.51C77.5547 312.384 77.5547 309.574 77.5547 309.574L88.365 308.42Z" fill="white" stroke="#054752" stroke-width="0.720687" stroke-linecap="round" stroke-linejoin="round"/>
<path d="M77.8069 318.51H95.3556C95.3917 319.519 95.3916 320.384 95.3916 320.384H78.0231C78.0231 320.384 77.915 319.591 77.8069 318.51Z" fill="white" stroke="#054752" stroke-width="0.720687" stroke-linecap="round" stroke-linejoin="round"/>
<path d="M88.5811 306.042C88.5811 306.979 88.5811 308.421 88.5811 308.421L88.3289 309.574C88.3289 309.574 83.176 310.042 81.9869 310.294C80.8338 310.511 77.7708 309.574 77.7708 309.574C77.7708 309.574 76.3655 302.295 76.3655 301.61C76.3655 300.889 65.0867 222.226 65.0867 222.226L64.3661 222.118L63.6814 222.226C63.6814 222.226 52.4027 300.889 52.4027 301.61C52.4027 302.295 50.9973 309.574 50.9973 309.574C50.9973 309.574 47.9344 310.511 46.7813 310.294C45.5922 310.042 40.4393 309.574 40.4393 309.574L40.187 308.421C40.187 308.421 40.187 306.979 40.187 306.042C40.187 305.105 42.313 303.232 42.313 303.232L43.4661 207.885L64.3661 209.038L85.266 207.885L86.4551 303.232C86.4551 303.232 88.5811 305.105 88.5811 306.042Z" fill="#054752" stroke="#054752" stroke-width="0.720687" stroke-linecap="round" stroke-linejoin="round"/>
<path d="M94.4188 154.013C94.4188 154.013 101.085 157.076 103.319 158.626C105.553 160.175 105.049 165.977 105.734 169.22C106.418 172.499 107.247 174.553 106.418 175.382C105.553 176.247 104.364 177.796 104.364 177.796C104.364 177.796 105.193 186.012 105.553 192.354C105.878 198.66 102.455 200.894 99.7159 202.624C96.9773 204.317 93.9144 204.678 88.257 204.317C82.5996 203.993 78.6718 201.254 78.1674 200.029C77.6629 198.84 72.8703 185.651 74.9243 178.12C76.9782 170.589 83.8248 154.518 87.0678 152.788C90.3109 151.095 94.4188 154.013 94.4188 154.013Z" fill="#054752" stroke="#054752" stroke-width="0.720687" stroke-linecap="round" stroke-linejoin="round"/>
<path d="M47.8624 142.699L57.4475 137.402L70.1316 136.393L83.14 142.014L86.3831 199.02L86.5633 207.741C86.5633 207.741 79.3564 212.533 74.3837 214.911C69.447 217.326 66.348 217.65 66.348 217.65L65.3391 214.407L63.9698 217.326C63.9698 217.326 58.1322 215.956 53.1595 214.227C48.2228 212.533 41.5564 208.425 41.5564 208.425L42.7455 199.885L47.8624 142.699Z" fill="white" stroke="#054752" stroke-width="0.720687" stroke-linecap="round" stroke-linejoin="round"/>
<path d="M64.4743 153.653C56.8711 152.932 53.4839 143.239 52.583 140.104L57.4476 137.402L70.1317 136.393L78.0953 139.852C76.3296 144.284 71.5371 154.338 64.4743 153.653Z" fill="white" stroke="#054752" stroke-width="0.720687" stroke-linecap="round" stroke-linejoin="round"/>
<path d="M57.4477 137.402L72.1497 136.357C72.1497 136.357 71.8975 136.861 70.9966 138.41C70.0957 139.924 67.177 145.653 63.8618 144.392C60.5466 143.131 57.1234 138.519 57.1234 138.519C55.8261 136.861 57.4477 137.402 57.4477 137.402Z" fill="#054752" stroke="#054752" stroke-width="0.720687" stroke-linecap="round" stroke-linejoin="round"/>
<path d="M79.8608 138.591C83.9687 139.816 90.8152 140.645 91.4999 142.194C92.1845 143.744 94.5988 148.176 96.1483 152.968C97.6618 157.761 103.68 173.184 103.319 175.057C102.995 176.931 98.2023 177.796 96.6528 177.436C95.1033 177.111 89.8063 173.688 89.8063 173.688L89.4459 201.254C89.4459 201.254 88.437 202.444 87.5722 203.128C86.7073 203.813 70.8162 210.299 70.2757 210.155C69.7712 209.975 70.1315 136.393 70.1315 136.393C70.1315 136.393 75.7529 137.402 79.8608 138.591Z" fill="#00AFF5" stroke="#054752" stroke-width="0.720687" stroke-linecap="round" stroke-linejoin="round"/>
<path d="M69.7712 135.528C69.9513 134.663 73.1224 134.591 73.6989 136.717C74.3115 138.843 77.8068 149.905 77.3024 151.275C76.7979 152.644 72.1855 148.716 72.1855 148.716L70.2757 151.419C70.2757 151.419 69.591 136.393 69.7712 135.528Z" fill="#00AFF5" stroke="#054752" stroke-width="0.720687" stroke-linecap="round" stroke-linejoin="round"/>
<path d="M83.9689 139.816C83.9689 139.816 83.8247 159.635 84.5094 164.607C85.194 169.58 89.8064 186.516 89.8064 186.516V193.039C89.8064 193.039 81.9149 175.742 80.7258 169.4C79.5366 163.058 79.861 138.591 79.861 138.591L83.9689 139.816Z" fill="#054752" stroke="#054752" stroke-width="0.720687" stroke-linecap="round" stroke-linejoin="round"/>
<path d="M58.961 138.699C58.961 138.699 59.2493 207.741 59.2493 208.677C59.2493 209.65 57.7358 209.11 56.6188 208.569C55.5377 207.993 44.5473 204.281 41.5204 203.056C38.4935 201.831 38.0611 202.624 38.2052 201.254C38.3494 199.885 38.3494 195.345 38.3494 194.66C38.3494 193.975 39.3223 179.958 39.3223 179.958C39.3223 179.958 32.8361 182.3 28.9804 180.787C25.1608 179.273 23.3591 177.472 23.7915 176.102C24.1879 174.733 31.4668 156.86 32.0073 155.202C32.5839 153.581 33.9532 144.212 34.782 143.383C35.6108 142.554 54.1684 137.906 55.2495 137.077C56.3665 136.248 57.4476 136.393 57.88 136.393C58.2764 136.393 58.7088 136.104 58.961 138.699Z" fill="#00AFF5" stroke="#054752" stroke-width="0.720687" stroke-linecap="round" stroke-linejoin="round"/>
<path d="M43.0338 161.04C43.214 162.301 43.3221 163.49 43.1419 164.139C42.7455 165.941 39.3223 179.958 39.3223 179.958" stroke="#054752" stroke-width="0.720687" stroke-linecap="round" stroke-linejoin="round"/>
<path d="M42.2051 156.572C42.2051 156.572 42.3853 157.364 42.6015 158.409" stroke="#054752" stroke-width="0.720687" stroke-linecap="round" stroke-linejoin="round"/>
<path d="M58.961 138.699L58.8169 151.095L57.1953 149.293C57.1953 149.293 55.1053 150.41 53.8802 151.095C52.655 151.779 51.3938 151.347 51.3938 151.347C51.3938 151.347 51.8262 150.122 52.7631 148.068C53.736 146.014 55.5378 139.419 55.6819 138.158C55.79 136.933 57.0512 135.42 57.0512 135.42C59.1051 134.303 58.961 138.699 58.961 138.699Z" fill="#00AFF5" stroke="#054752" stroke-width="0.720687" stroke-linecap="round" stroke-linejoin="round"/>
<path d="M50.0244 113.547C49.1956 111.781 52.6549 107.385 55.9341 105.295C59.2492 103.241 65.5552 102.556 68.5821 104.61C71.609 106.7 75.6088 111.096 75.7529 113.295C75.861 115.493 74.2395 122.231 74.2395 122.231C74.2395 122.231 74.9242 122.231 75.4647 122.231C76.0052 122.231 76.2935 123.312 76.1493 125.114C76.0052 126.879 73.663 130.195 73.663 130.195C73.663 130.195 73.5548 133.618 73.1224 134.591C72.7261 135.564 69.5911 140.32 68.7262 140.933C66.9245 142.158 65.1588 142.987 61.6995 141.618C58.2763 140.212 57.5916 137.474 56.3665 136.248C55.1053 134.987 53.3396 130.339 53.3396 130.339C53.3396 130.339 52.5108 129.906 51.3937 128.537C50.3127 127.168 50.7091 125.114 50.8532 123.456C50.9973 121.799 53.1954 124.681 53.1954 124.681C53.1954 124.681 50.8532 115.348 50.0244 113.547Z" fill="white" stroke="#054752" stroke-width="0.720687" stroke-linecap="round" stroke-linejoin="round"/>
<path d="M66.5281 132.969C66.5281 132.969 65.8434 134.483 64.2939 134.158C62.7445 133.798 62.24 132.969 62.24 132.969" stroke="#054752" stroke-width="0.720687" stroke-linecap="round" stroke-linejoin="round"/>
<path d="M67.393 135.348C67.393 135.348 66.348 136.393 64.4742 136.393C62.6004 136.393 61.5554 135.528 61.5554 135.528" stroke="#054752" stroke-width="0.720687" stroke-linecap="round" stroke-linejoin="round"/>
<path d="M53.1955 124.681C53.1955 124.681 53.0874 124.537 52.9072 124.357L53.1955 124.681Z" stroke="#054752" stroke-width="0.720687" stroke-linecap="round" stroke-linejoin="round"/>
<path d="M75.7529 113.295C75.861 115.493 74.2395 122.231 74.2395 122.231C74.2395 122.231 74.2635 122.231 74.3116 122.231C74.2395 123.132 73.9873 124.789 73.2666 124.681C72.2936 124.573 72.7261 122.772 72.7261 122.772C72.7261 122.772 72.0414 122.627 71.0685 122.339C70.0956 122.087 70.2397 119.745 70.2397 118.087C70.2397 116.429 68.438 114.916 68.438 114.916C68.438 114.916 68.0416 116.862 64.3301 118.772C60.6185 120.718 59.5015 121.943 57.7358 121.114C56.6187 120.609 57.5556 119.745 58.2763 119.276C57.3034 119.492 55.6818 119.42 55.1053 120.429C54.4206 121.654 55.1053 123.06 54.7089 123.997C54.2765 124.97 53.1954 124.681 53.1954 124.681C53.1954 124.681 50.8532 115.348 50.0244 113.547C49.1956 111.781 52.6549 107.385 55.9341 105.295C59.2492 103.241 65.5552 102.556 68.5821 104.61C71.609 106.7 75.6088 111.096 75.7529 113.295Z" fill="#054752" stroke="#054752" stroke-width="0.720687" stroke-linecap="round" stroke-linejoin="round"/>
<path d="M66.5281 127.564C66.5281 127.564 68.3298 129.078 71.0684 127.312" stroke="#054752" stroke-width="0.720687" stroke-linecap="round" stroke-linejoin="round"/>
<path d="M56.6187 127.564C56.6187 127.564 58.4204 129.078 61.159 127.312" stroke="#054752" stroke-width="0.720687" stroke-linecap="round" stroke-linejoin="round"/>
<path d="M56.2224 125.51C56.2224 125.51 58.4205 124.573 60.6186 125.114" stroke="#054752" stroke-width="0.720687" stroke-linecap="round" stroke-linejoin="round"/>
<path d="M66.6724 125.114C66.6724 125.114 68.5822 124.429 70.6361 125.258" stroke="#054752" stroke-width="0.720687" stroke-linecap="round" stroke-linejoin="round"/>
<path d="M27.3588 175.562C27.3588 175.562 35.8629 175.021 37.1241 175.021C38.3493 175.021 39.3222 177.616 39.5745 179.129C39.8627 180.643 40.0069 184.066 40.0069 184.066C40.0069 184.066 36.0071 189.723 33.2684 190.696C30.4938 191.633 24.4761 189.868 22.9626 188.606C21.4492 187.381 20.188 181.76 21.0168 179.814C21.8456 177.904 23.6473 176.643 24.3319 175.958" fill="#00AFF5"/>
<path d="M27.3588 175.562C27.3588 175.562 35.8629 175.021 37.1241 175.021C38.3493 175.021 39.3222 177.616 39.5745 179.129C39.8627 180.643 40.0069 184.066 40.0069 184.066C40.0069 184.066 36.0071 189.723 33.2684 190.696C30.4938 191.633 24.4761 189.868 22.9626 188.606C21.4492 187.381 20.188 181.76 21.0168 179.814C21.8456 177.904 23.6473 176.643 24.3319 175.958" stroke="#054752" stroke-width="0.720687" stroke-linecap="round" stroke-linejoin="round"/>
<path d="M57.5556 157.401L60.9788 174.445L52.9792 176.211L48.7632 158.698L57.5556 157.401Z" fill="#054752" stroke="#054752" stroke-width="0.720687" stroke-linecap="round" stroke-linejoin="round"/>
<path d="M44.259 174.877L46.6012 172.535C46.6012 172.535 47.5742 168.823 48.1147 167.706C48.6552 166.625 50.1686 164.716 50.1686 164.716L50.7091 166.481C50.7091 166.481 55.9341 164.139 56.7629 164.139C57.5917 164.139 57.88 164.968 57.88 165.4C57.88 165.797 52.0785 168.535 52.0785 168.535L51.3938 169.508C51.3938 169.508 56.3665 167.598 57.1953 167.022C57.9881 166.481 58.961 166.337 58.961 166.337C58.961 166.337 59.6457 167.454 59.3934 167.995C59.1051 168.535 58.8169 169.22 58.8169 169.22C58.8169 169.22 58.925 169.508 58.7088 170.301C58.3484 171.634 57.0512 172.535 57.0512 172.535C57.0512 172.535 55.2495 174.733 54.2765 175.706C53.3397 176.643 49.8804 177.472 49.8804 177.472L43.4302 181.616C43.4302 181.616 42.4573 180.787 42.4573 178.445C42.4573 176.102 44.259 174.877 44.259 174.877Z" fill="white" stroke="#054752" stroke-width="0.720687" stroke-linecap="round" stroke-linejoin="round"/>
<path d="M58.9609 168.535C58.9609 168.535 53.4837 171.31 52.0784 172.247" stroke="#054752" stroke-width="0.720687" stroke-linecap="round" stroke-linejoin="round"/>
<path d="M52.2947 174.625L57.0512 172.535" stroke="#054752" stroke-width="0.720687" stroke-linecap="round" stroke-linejoin="round"/>
<path d="M45.34 173.508C45.34 173.508 43.5743 175.706 43.7184 177.76C43.8626 179.814 45.34 183.273 45.34 183.273C45.34 183.273 42.8896 184.895 41.9167 185.868C40.9438 186.841 38.7457 187.381 37.9169 185.579C37.1241 183.814 35.7188 179.814 36.2954 177.472C36.8359 175.129 37.9169 174.445 38.4934 174.337C39.034 174.193 44.4031 173.652 45.34 173.508Z" fill="#00AFF5" stroke="#054752" stroke-width="0.720687" stroke-linecap="round" stroke-linejoin="round"/>
<path d="M86.203 168.715L85.194 168.211L84.6535 167.526C84.6535 167.526 79.1763 165.977 78.852 165.292C78.4917 164.607 78.3475 162.553 78.3475 162.553C78.3475 162.553 76.9782 161.364 76.9782 160.68C76.9782 159.995 77.3025 157.256 77.3025 157.256C77.3025 157.256 77.3025 157.256 76.9782 155.707C76.6179 154.157 78.1673 153.653 79.0322 153.653C79.861 153.653 82.9599 154.518 83.4644 154.518C83.9689 154.518 85.3382 155.383 86.203 156.752C87.0678 158.121 89.4461 165.292 89.4461 165.292L86.203 168.715Z" fill="white" stroke="#054752" stroke-width="0.720687" stroke-linecap="round" stroke-linejoin="round"/>
<path d="M92.3648 168.391C92.3648 168.391 96.9772 170.949 98.3465 171.454C99.7158 171.958 101.445 172.139 103.319 175.057C105.193 177.976 104.508 182.769 103.319 185.327C102.13 187.886 98.2024 188.57 95.6079 188.57C93.0495 188.57 90.4911 183.273 89.1217 181.724C87.7524 180.174 85.5183 175.742 85.5183 175.742L92.3648 168.391Z" fill="#00AFF5" stroke="#054752" stroke-width="0.720687" stroke-linecap="round" stroke-linejoin="round"/>
<path d="M94.0944 168.896L85.1939 178.12C85.1939 178.12 82.2751 174.193 82.2751 173.184C82.2751 172.139 83.6445 170.265 85.1939 168.211C86.7074 166.157 90.1306 164.283 90.1306 164.283C92.0405 165.472 94.0944 168.896 94.0944 168.896Z" fill="#00AFF5" stroke="#054752" stroke-width="0.720687" stroke-linecap="round" stroke-linejoin="round"/>
<path d="M50.9974 309.574C50.9974 309.574 50.9974 312.384 50.9974 314.51C50.9974 316.636 50.529 320.384 50.529 320.384H33.1604C33.1604 320.384 33.1604 316.384 33.8451 315.231C34.5657 314.042 38.7818 312.384 38.7818 312.384L40.1871 308.42L50.9974 309.574Z" fill="white" stroke="#054752" stroke-width="0.720687" stroke-linecap="round" stroke-linejoin="round"/>
<path d="M50.529 320.384H33.1604C33.1604 320.384 33.1604 319.519 33.2325 318.51H50.7452C50.6371 319.591 50.529 320.384 50.529 320.384Z" fill="white" stroke="#054752" stroke-width="0.720687" stroke-linecap="round" stroke-linejoin="round"/>
<path d="M240.898 311.339H213.332C213.332 311.339 214.125 298.151 219.025 292.493C223.926 286.8 231.385 286.187 237.439 289.538C243.529 292.854 243.925 307.772 243.925 307.772H290.986C290.986 307.772 295.31 290.908 305.112 289.719C314.913 288.566 317.291 305.61 317.291 305.61L315.598 311.339H240.898Z" fill="#054752" stroke="#054752" stroke-width="0.720687" stroke-linecap="round" stroke-linejoin="round"/>
<path d="M305.436 315.375V320.384H299.851C294.517 320.384 290.193 314.474 290.193 307.231C290.193 299.952 294.517 294.079 299.851 294.079H305.436V299.051C306.769 301.286 307.562 304.132 307.562 307.231C307.562 310.294 306.769 313.141 305.436 315.375Z" fill="#054752" stroke="#054752" stroke-width="0.720687" stroke-linecap="round" stroke-linejoin="round"/>
<path d="M313.616 307.231C313.616 314.51 310.12 320.384 305.868 320.384C301.58 320.384 298.085 314.51 298.085 307.231C298.085 299.988 301.58 294.115 305.868 294.115C310.12 294.115 313.616 299.988 313.616 307.231Z" fill="#054752" stroke="#054752" stroke-width="0.720687" stroke-linecap="round" stroke-linejoin="round"/>
<path d="M311.814 307.231C311.814 312.817 309.148 317.357 305.868 317.357C302.553 317.357 299.887 312.817 299.887 307.231C299.887 301.682 302.553 297.142 305.868 297.142C309.148 297.142 311.814 301.682 311.814 307.231Z" fill="white" stroke="#054752" stroke-width="0.720687" stroke-linecap="round" stroke-linejoin="round"/>
<path d="M228.935 315.303V320.384H221.224C215.782 320.384 211.386 314.366 211.386 306.979C211.386 299.556 215.782 293.574 221.224 293.574H228.935V298.655C230.268 300.925 231.097 303.808 231.097 306.979C231.097 310.114 230.268 312.997 228.935 315.303Z" fill="#054752" stroke="#054752" stroke-width="0.720687" stroke-linecap="round" stroke-linejoin="round"/>
<path d="M238.808 306.979C238.808 314.366 234.376 320.384 228.935 320.384C223.494 320.384 219.098 314.366 219.098 306.979C219.098 299.556 223.494 293.574 228.935 293.574C234.376 293.574 238.808 299.556 238.808 306.979Z" fill="#054752" stroke="#054752" stroke-width="0.720687" stroke-linecap="round" stroke-linejoin="round"/>
<path d="M236.538 306.979C236.538 312.672 233.115 317.285 228.935 317.285C224.755 317.285 221.368 312.672 221.368 306.979C221.368 301.286 224.755 296.673 228.935 296.673C233.115 296.673 236.538 301.286 236.538 306.979Z" fill="white" stroke="#054752" stroke-width="0.720687" stroke-linecap="round" stroke-linejoin="round"/>
<path d="M281.725 307.231C281.725 314.51 278.266 320.384 273.978 320.384C273.834 320.384 273.701 320.372 273.581 320.348V320.384H267.96C262.627 320.384 258.303 314.474 258.303 307.231C258.303 299.952 262.627 294.079 267.96 294.079H273.581V294.115C273.701 294.115 273.834 294.115 273.978 294.115C278.266 294.115 281.725 299.988 281.725 307.231Z" fill="#054752" stroke="#054752" stroke-width="0.720687" stroke-linecap="round" stroke-linejoin="round"/>
<path d="M194.846 306.979C194.846 314.366 190.414 320.384 184.973 320.384H177.262C171.821 320.384 167.424 314.366 167.424 306.979C167.424 299.556 171.821 293.574 177.262 293.574H184.973C190.414 293.574 194.846 299.556 194.846 306.979Z" fill="#054752" stroke="#054752" stroke-width="0.720687" stroke-linecap="round" stroke-linejoin="round"/>
<path d="M321.831 307.988C321.831 307.988 323.129 310.294 321.363 311.339H315.597C315.597 310.907 315.597 310.486 315.597 310.078C315.597 300.457 311.201 292.637 305.76 292.637C300.283 292.637 295.887 300.457 295.887 310.078C295.887 310.486 295.887 310.907 295.887 311.339H240.898C240.97 310.498 241.006 309.646 241.006 308.781C241.006 298.475 235.709 290.079 229.223 290.079C222.737 290.079 217.44 298.475 217.44 308.781C217.44 309.646 217.512 312.024 217.548 312.853H216.683H195.675L193.441 311.844H163.965L162.199 312.853H159.641V296.385C159.641 296.385 159.641 295.556 159.425 294.331C159.244 293.07 162.343 290.8 162.343 290.8C162.343 290.8 162.74 287.268 165.226 285.394C167.748 283.557 190.738 277.107 190.738 277.107C190.738 277.107 216.071 266.08 220.611 264.927C228.43 262.981 231.277 263.197 234.412 262.873C240.25 262.333 246.448 262.513 246.448 262.513C246.448 262.513 263.312 262.585 274.734 263.269C290.734 264.242 293.833 268.206 296.211 269.287C298.589 270.404 306.481 275.665 309.976 277.683C313.435 279.701 314.697 280.061 316.174 280.782C317.615 281.503 318.156 283.521 318.156 283.521C318.156 283.521 320.174 283.16 320.174 284.422C320.174 285.719 319.273 289.899 319.273 289.899C319.273 289.899 319.633 291.196 321.255 293.178C322.912 295.196 322.732 295.376 323.093 297.214C323.453 299.015 321.831 307.988 321.831 307.988Z" fill="white" stroke="#054752" stroke-width="0.720687" stroke-linecap="round" stroke-linejoin="round"/>
<path d="M261.978 266.729C271.708 265.936 281.329 265.828 286.229 267.485C291.166 269.107 304.859 277.683 303.922 278.764C303.021 279.881 296.823 281.142 296.823 281.142C296.823 281.142 247.384 281.142 245.727 281.142C244.105 281.142 237.691 280.242 237.511 279.701C237.331 279.161 248.646 271.629 248.646 271.629C248.646 271.629 254.699 267.305 261.978 266.729Z" fill="#054752" stroke="#054752" stroke-width="0.720687" stroke-linecap="round" stroke-linejoin="round"/>
<path d="M275.023 286.98H269.906C269.365 286.98 268.897 286.548 268.897 285.971C268.897 285.431 269.365 284.998 269.906 284.998H275.023C275.563 284.998 276.032 285.431 276.032 285.971C276.032 286.548 275.563 286.98 275.023 286.98Z" stroke="#054752" stroke-width="0.720687" stroke-linecap="round" stroke-linejoin="round"/>
<path d="M297.725 286.98H292.644C292.067 286.98 291.635 286.548 291.635 285.971C291.635 285.43 292.067 284.998 292.644 284.998H297.725C298.301 284.998 298.734 285.43 298.734 285.971C298.734 286.548 298.301 286.98 297.725 286.98Z" stroke="#054752" stroke-width="0.720687" stroke-linecap="round" stroke-linejoin="round"/>
<path d="M275.491 281.683L277.653 284.998L277.473 304.673L278.59 306.871L277.473 309.429L278.951 311.087" stroke="#054752" stroke-width="0.720687" stroke-linecap="round" stroke-linejoin="round"/>
<path d="M300.283 280.782L301.76 282.44L299.022 294.836L293.184 308.709C293.184 308.709 289.509 309.069 288.968 309.069C288.428 309.069 246.844 309.429 246.844 309.429C246.844 309.429 246.267 308.529 245.727 307.411C245.186 306.33 243.349 291.196 243.349 287.737C243.349 284.241 241.727 281.323 241.727 281.323" stroke="#054752" stroke-width="0.720687" stroke-linecap="round" stroke-linejoin="round"/>
<path d="M219.818 265.792C219.818 265.792 223.097 264.891 230.593 264.891C238.088 264.891 251.024 266.008 251.024 266.008C251.024 266.008 249.583 266.729 245.727 269.107C241.907 271.449 239.349 272.386 235.169 275.125C230.953 277.863 225.836 277.503 225.836 277.503H191.027L219.818 265.792Z" fill="#054752" stroke="#054752" stroke-width="0.720687" stroke-linecap="round" stroke-linejoin="round"/>
<path d="M228.034 278.98C228.034 278.98 224.395 283.16 223.674 283.521C222.917 283.881 218.593 284.494 218.593 284.494" stroke="#054752" stroke-width="0.720687" stroke-linecap="round" stroke-linejoin="round"/>
<path d="M201.333 286.836L218.593 284.494C218.593 284.494 206.305 291.953 204.468 291.953C202.666 291.953 189.225 292.385 189.225 292.385L192.612 289.467L196.576 287.413L201.333 286.836Z" fill="#666666" stroke="#054752" stroke-width="0.720687" stroke-linecap="round" stroke-linejoin="round"/>
<path d="M204.468 291.953C202.666 291.953 189.225 292.385 189.225 292.385L190.847 290.98L204.251 290.115L209.296 286.764L216.251 285.863C212.575 288.025 205.801 291.953 204.468 291.953Z" fill="white" stroke="#054752" stroke-width="0.720687" stroke-linecap="round" stroke-linejoin="round"/>
<path d="M165.262 289.106L164.361 292.061L162.343 290.8C162.343 290.8 162.307 288.746 163.785 287.304L165.262 289.106Z" fill="#666666" stroke="#054752" stroke-width="0.720687" stroke-linecap="round" stroke-linejoin="round"/>
<path d="M164.361 292.061L162.343 290.8C162.343 290.8 162.343 290.439 162.415 289.971L164.613 291.304L164.361 292.061Z" fill="white" stroke="#054752" stroke-width="0.720687" stroke-linecap="round" stroke-linejoin="round"/>
<path d="M164.469 286.295L170.019 288.205C170.019 288.205 176.108 288.53 176.793 288.53C177.478 288.53 201.332 286.836 201.332 286.836C201.332 286.836 199.279 288.205 198.702 288.421C198.161 288.674 176.577 291.016 176.577 291.016L173.622 294.295H170.451L169.55 290.584C165.262 289.466 163.785 287.304 163.785 287.304L164.469 286.295Z" fill="#054752" stroke="#054752" stroke-width="0.720687" stroke-linecap="round" stroke-linejoin="round"/>
<path d="M205.188 306.943C205.188 307.88 204.215 308.637 202.99 308.637C201.765 308.637 200.792 307.88 200.792 306.943C200.792 306.006 201.765 305.249 202.99 305.249C204.215 305.249 205.188 306.006 205.188 306.943Z" fill="#054752" stroke="#054752" stroke-width="0.720687" stroke-linecap="round" stroke-linejoin="round"/>
<path d="M319.273 289.899L313.796 286.98L314.517 284.422L318.156 283.521C318.985 283.593 320.174 283.16 320.174 284.422C320.174 285.719 319.273 289.899 319.273 289.899Z" fill="#054752" stroke="#054752" stroke-width="0.720687" stroke-linecap="round" stroke-linejoin="round"/>
<path d="M307.958 282.115C310.805 282.043 313.327 282.007 315.345 282.043" stroke="#054752" stroke-width="0.720687" stroke-linecap="round" stroke-linejoin="round"/>
<path d="M252.573 285.611C268.5 284.349 289.689 282.8 304.247 282.259" stroke="#054752" stroke-width="0.720687" stroke-linecap="round" stroke-linejoin="round"/>
<path d="M234.412 287.088C237.835 286.8 243.168 286.331 249.547 285.827" stroke="#054752" stroke-width="0.720687" stroke-linecap="round" stroke-linejoin="round"/>
<path d="M230.412 287.412C230.412 287.412 231.277 287.34 232.826 287.196" stroke="#054752" stroke-width="0.720687" stroke-linecap="round" stroke-linejoin="round"/>
<path d="M163.676 294.655H183.928L188.648 297.25L194.99 307.52L188.756 309.321H161.19L159.965 306.186L160.649 296.457L163.676 294.655Z" fill="#054752" stroke="#054752" stroke-width="0.720687" stroke-linecap="round" stroke-linejoin="round"/>
<path d="M179.171 303.592H163.785V297.142H179.171V303.592Z" fill="white"/>
<path d="M188.108 298.187H181.261" stroke="#737373" stroke-width="0.720687" stroke-linecap="round" stroke-linejoin="round"/>
<path d="M189.909 300.709H181.622" stroke="#737373" stroke-width="0.720687" stroke-linecap="round" stroke-linejoin="round"/>
<path d="M191.747 303.231H181.622" stroke="#737373" stroke-width="0.720687" stroke-linecap="round" stroke-linejoin="round"/>
<path d="M193.549 305.754H171.856" stroke="#737373" stroke-width="0.720687" stroke-linecap="round" stroke-linejoin="round"/>
<path d="M193.549 308.024H161.334" stroke="#737373" stroke-width="0.720687" stroke-linecap="round" stroke-linejoin="round"/>
<path d="M259.024 276.386C259.384 278.476 255.672 280.566 255.672 280.566C255.672 280.566 248.285 280.566 247.276 280.566C246.303 280.566 245.475 279.701 245.294 277.431C245.186 276.53 246.88 275.413 248.97 274.296H257.402C258.195 274.872 258.915 275.593 259.024 276.386Z" fill="white" stroke="#054752" stroke-width="0.720687" stroke-linecap="round" stroke-linejoin="round"/>
<path d="M245.294 277.431H256.105H245.294Z" fill="white"/>
<path d="M245.294 277.431H256.105" stroke="#054752" stroke-width="0.720687" stroke-linecap="round" stroke-linejoin="round"/>
<path d="M250.051 280.53C249.799 283.809 250.808 283.557 250.808 283.557L248.538 284.025L247.781 283.305L247.276 280.566L250.051 280.53Z" fill="#054752" stroke="#054752" stroke-width="0.720687" stroke-linecap="round" stroke-linejoin="round"/>
<path d="M191.928 297.79H216.503H191.928Z" fill="white"/>
<path d="M191.928 297.79H216.503" stroke="#054752" stroke-width="0.720687" stroke-linecap="round" stroke-linejoin="round"/>
<path d="M203.747 308.781L205.945 307.087L203.603 298.403L196 293.646L203.999 297.358L206.81 308.276L205.152 309.465H195.315L203.747 308.781Z" fill="#054752" stroke="#054752" stroke-width="0.720687" stroke-linecap="round" stroke-linejoin="round"/>
<path d="M1.05371 320.384H330.336" stroke="#054752" stroke-width="0.720687" stroke-linecap="round" stroke-linejoin="round"/>
<defs>
<filter id="filter0_i_1134_1974" x="125.073" y="153.154" width="12.2954" height="10.2644" filterUnits="userSpaceOnUse" color-interpolation-filters="sRGB">
<feFlood flood-opacity="0" result="BackgroundImageFix"/>
<feBlend mode="normal" in="SourceGraphic" in2="BackgroundImageFix" result="shape"/>
<feColorMatrix in="SourceAlpha" type="matrix" values="0 0 0 0 0 0 0 0 0 0 0 0 0 0 0 0 0 0 127 0" result="hardAlpha"/>
<feOffset dx="0.360344" dy="0.720687"/>
<feGaussianBlur stdDeviation="0.540515"/>
<feComposite in2="hardAlpha" operator="arithmetic" k2="-1" k3="1"/>
<feColorMatrix type="matrix" values="0 0 0 0 0.271181 0 0 0 0 0.591667 0 0 0 0 0.322753 0 0 0 0.5 0"/>
<feBlend mode="normal" in2="shape" result="effect1_innerShadow_1134_1974"/>
</filter>
</defs>
</svg>
