<svg width="341" height="276" viewBox="0 0 341 276" fill="none" xmlns="http://www.w3.org/2000/svg">
<path d="M170.127 0.997406C164.467 6.84 149.988 12.7426 133.104 25.2624C133.104 25.2624 134.157 67.5671 170.127 90.693V0.997406Z" fill="#00AFF5" stroke="#054752" stroke-linecap="round" stroke-linejoin="round"/>
<path d="M170.127 0.997406C175.784 6.84 190.267 12.7426 207.151 25.2624C207.151 25.2624 206.097 67.5671 170.127 90.693V0.997406Z" fill="#054752" stroke="#054752" stroke-linecap="round" stroke-linejoin="round"/>
<path d="M170.128 4.599C163.298 9.85134 151.463 14.8593 135.819 26.4569C135.819 26.4569 136.797 65.6535 170.128 87.0917C203.458 65.6627 204.436 26.4569 204.436 26.4569C188.788 14.8639 177.008 9.85134 170.128 4.599Z" fill="#054752" stroke="#054752" stroke-linecap="round" stroke-linejoin="round"/>
<path d="M198.588 22.2926C174.721 30.132 156.515 52.889 148.237 64.8924C153.931 73.9572 161.408 81.539 170.127 87.0915C203.458 65.6625 204.436 26.4567 204.436 26.4567C202.421 24.9688 200.472 23.5807 198.588 22.2926Z" fill="#00AFF5" stroke="#054752" stroke-linecap="round" stroke-linejoin="round"/>
<path d="M183.123 44.1229H157.536C156.972 44.1229 156.431 43.88 156.033 43.4476C155.635 43.0152 155.411 42.4288 155.411 41.8173V28.7487C155.477 24.505 157.077 20.4594 159.866 17.4837C162.655 14.5081 166.41 12.8405 170.321 12.8405C174.232 12.8405 177.987 14.5081 180.776 17.4837C183.565 20.4594 185.165 24.505 185.231 28.7487V41.8173C185.231 42.4256 185.01 43.0093 184.615 43.4411C184.22 43.873 183.684 44.1181 183.123 44.1229ZM159.677 39.5116H180.998V28.7487C180.943 25.7207 179.795 22.8372 177.802 20.7172C175.809 18.5972 173.129 17.4097 170.338 17.4097C167.547 17.4097 164.867 18.5972 162.874 20.7172C160.881 22.8372 159.733 25.7207 159.677 28.7487V39.5116Z" fill="white" stroke="#054752" stroke-linecap="round" stroke-linejoin="round"/>
<path d="M186.404 37.8238H153.851V67.6732H186.404V37.8238Z" fill="white" stroke="#054752" stroke-linecap="round" stroke-linejoin="round"/>
<path d="M173.51 50.2191C173.51 49.5393 173.344 48.8717 173.029 48.2842C172.714 47.6967 172.26 47.2104 171.716 46.8747C171.171 46.5391 170.554 46.3662 169.927 46.3735C169.301 46.3809 168.687 46.5683 168.149 46.9166C167.611 47.265 167.168 47.7618 166.865 48.3566C166.561 48.9513 166.409 49.6227 166.422 50.3024C166.436 50.982 166.615 51.6456 166.942 52.2255C167.269 52.8055 167.731 53.2811 168.283 53.6039L167.688 60.3826H172.244L171.649 53.6039C172.212 53.2752 172.683 52.7868 173.01 52.1907C173.338 51.5946 173.511 50.9132 173.51 50.2191Z" fill="#054752" stroke="#054752" stroke-linecap="round" stroke-linejoin="round"/>
<path d="M10.782 237.341L45.6206 240.761C45.6206 240.761 42.1764 203.78 35.882 195.334C29.5876 186.888 15.9226 185.262 9.59374 198.997C3.26493 212.731 10.782 237.341 10.782 237.341Z" fill="#054752"/>
<path d="M46.0942 241.247L10.4634 237.771L10.3687 237.481C10.1018 236.472 2.86883 212.544 9.2407 198.791C12.0219 192.755 16.4995 189.083 21.8467 188.438C24.5589 188.153 27.294 188.601 29.8077 189.742C32.3215 190.883 34.5356 192.683 36.2522 194.979C42.5897 203.444 45.9392 239.145 46.077 240.658L46.0942 241.247ZM11.1006 236.902L45.1384 240.219C44.6734 235.547 41.2981 203.276 35.5462 195.595C33.9244 193.415 31.8294 191.705 29.4491 190.619C27.0687 189.533 24.4773 189.105 21.9069 189.373C16.8611 189.971 12.6247 193.465 9.9726 199.211C4.16904 211.797 10.2912 234.099 11.1006 236.902Z" fill="#054752"/>
<path d="M40.2388 203.977H24.4985V262.886H40.2388C46.5417 262.886 51.6478 249.703 51.6478 233.436C51.6478 217.169 46.5676 203.977 40.2388 203.977Z" fill="#054752"/>
<path d="M40.2386 263.353H24.0679V203.509H40.2386C46.8774 203.509 52.0782 216.655 52.0782 233.408C52.0782 250.16 46.9033 263.353 40.2386 263.353ZM24.9031 262.419H40.2386C46.2661 262.419 51.2172 249.413 51.2172 233.455C51.2172 217.496 46.2919 204.49 40.2386 204.49H24.9289L24.9031 262.419Z" fill="#054752"/>
<path d="M24.4984 262.895C30.7995 262.895 35.9075 249.706 35.9075 233.436C35.9075 217.166 30.7995 203.977 24.4984 203.977C18.1974 203.977 13.0894 217.166 13.0894 233.436C13.0894 249.706 18.1974 262.895 24.4984 262.895Z" fill="#878787"/>
<path d="M24.4986 263.353C17.8512 263.353 12.6504 250.207 12.6504 233.454C12.6504 216.702 17.8168 203.556 24.4986 203.556C31.1805 203.556 36.3382 216.702 36.3382 233.454C36.3382 250.207 31.1374 263.353 24.4986 263.353ZM24.4986 204.444C18.4712 204.444 13.5115 217.449 13.5115 233.408C13.5115 249.366 18.4367 262.372 24.4986 262.372C30.5605 262.372 35.4772 249.366 35.4772 233.408C35.4772 217.449 30.5519 204.444 24.4986 204.444Z" fill="#054752"/>
<path d="M24.4986 258.429C29.8058 258.429 34.1081 247.779 34.1081 234.641C34.1081 221.503 29.8058 210.853 24.4986 210.853C19.1915 210.853 14.8892 221.503 14.8892 234.641C14.8892 247.779 19.1915 258.429 24.4986 258.429Z" fill="white"/>
<path d="M24.4983 258.896C18.867 258.896 14.4497 248.245 14.4497 234.604C14.4497 220.962 18.867 210.311 24.4983 210.311C30.1297 210.311 34.5383 220.962 34.5383 234.604C34.5383 248.245 30.1297 258.896 24.4983 258.896ZM24.4983 211.32C19.4353 211.32 15.3108 221.785 15.3108 234.678C15.3108 247.572 19.4353 258.037 24.4983 258.037C29.5614 258.037 33.6772 247.572 33.6772 234.678C33.6772 221.785 29.5527 211.32 24.4983 211.32Z" fill="#054752"/>
<path d="M161.761 196.24H143.799C136.618 196.24 130.797 210.199 130.797 227.419C130.797 244.639 136.618 258.588 143.799 258.588H161.761C168.951 258.588 174.771 244.629 174.771 227.419C174.771 210.209 168.951 196.24 161.761 196.24Z" fill="#054752"/>
<path d="M161.761 259.055H143.799C136.394 259.055 130.366 244.863 130.366 227.419C130.366 209.975 136.394 195.773 143.799 195.773H161.761C169.174 195.773 175.202 209.966 175.202 227.419C175.202 244.872 169.174 259.055 161.761 259.055ZM143.799 196.707C136.867 196.707 131.227 210.489 131.227 227.419C131.227 244.349 136.867 258.121 143.799 258.121H161.761C168.701 258.121 174.341 244.349 174.341 227.419C174.341 210.489 168.701 196.707 161.761 196.707H143.799Z" fill="#054752"/>
<path d="M179.86 205.929H158.333V275.331H179.86C188.471 275.331 195.445 259.803 195.445 240.649C195.445 221.495 188.471 205.929 179.86 205.929Z" fill="#054752"/>
<path d="M179.86 275.77H157.903V205.462H179.86C188.694 205.462 195.876 221.233 195.876 240.621C195.876 260.008 188.694 275.77 179.86 275.77ZM158.764 274.836H179.86C188.221 274.836 195.015 259.485 195.015 240.621C195.015 221.757 188.221 206.396 179.86 206.396H158.764V274.836Z" fill="#054752"/>
<path d="M158.333 275.303C166.941 275.303 173.919 259.775 173.919 240.621C173.919 221.466 166.941 205.939 158.333 205.939C149.726 205.939 142.748 221.466 142.748 240.621C142.748 259.775 149.726 275.303 158.333 275.303Z" fill="#878787"/>
<path d="M158.334 275.77C149.499 275.77 142.318 259.999 142.318 240.621C142.318 221.243 149.499 205.462 158.334 205.462C167.168 205.462 174.349 221.233 174.349 240.621C174.349 260.008 167.16 275.77 158.334 275.77ZM158.334 206.396C149.973 206.396 143.179 221.747 143.179 240.621C143.179 259.494 149.973 274.836 158.334 274.836C166.695 274.836 173.488 259.485 173.488 240.621C173.488 221.757 166.686 206.396 158.334 206.396Z" fill="#054752"/>
<path d="M158.334 270.052C165.581 270.052 171.456 257.511 171.456 242.041C171.456 226.571 165.581 214.03 158.334 214.03C151.086 214.03 145.211 226.571 145.211 242.041C145.211 257.511 151.086 270.052 158.334 270.052Z" fill="white"/>
<path d="M158.333 270.52C150.859 270.52 144.78 257.747 144.78 242.041C144.78 226.335 150.859 213.563 158.333 213.563C165.807 213.563 171.887 226.344 171.887 242.041C171.887 257.738 165.807 270.52 158.333 270.52ZM158.333 214.46C151.333 214.46 145.641 226.821 145.641 242.004C145.641 257.187 151.333 269.548 158.333 269.548C165.334 269.548 171.025 257.196 171.025 242.004C171.025 226.812 165.334 214.497 158.333 214.497V214.46Z" fill="#054752"/>
<path d="M301.898 198.903H280.372C271.761 198.903 264.787 214.432 264.787 233.585C264.787 252.739 271.761 268.277 280.372 268.277H301.898C310.509 268.277 317.484 252.739 317.484 233.585C317.484 214.432 310.5 198.903 301.898 198.903Z" fill="#054752"/>
<path d="M301.899 268.791H280.372C271.546 268.791 264.356 253.019 264.356 233.632C264.356 214.245 271.546 198.483 280.372 198.483H301.899C310.725 198.483 317.915 214.254 317.915 233.632C317.915 253.01 310.725 268.791 301.899 268.791ZM280.372 199.417C272.02 199.417 265.218 214.768 265.218 233.632C265.218 252.496 272.02 267.857 280.372 267.857H301.899C310.251 267.857 317.054 252.506 317.054 233.632C317.054 214.759 310.251 199.417 301.899 199.417H280.372Z" fill="#054752"/>
<path d="M90.6367 119.578C86.9986 120.007 83.3931 120.716 79.8476 121.699C72.1911 123.805 64.7041 126.58 57.46 129.996C43.416 136.798 26.3584 150.626 21.1748 153.196C15.9912 155.765 8.00053 156.251 7.13086 159.998C6.46448 163.393 5.96151 166.823 5.624 170.275C5.624 170.275 2.17975 173.555 1.73199 182.692C1.28424 191.83 0.655665 222.299 1.30146 226.288C1.94726 230.278 1.732 231.203 4.9782 233.081C8.22441 234.959 10.1446 237.304 10.8076 237.304C11.4706 237.304 7.10503 208.274 14.0194 201.519C20.9337 194.764 31.3009 196.362 35.6148 211.797C39.9287 227.232 38.4219 243.91 40.1526 244.844C41.3847 245.456 42.6982 245.854 44.0446 246.021L139.726 254.43C139.726 254.43 135.188 232.165 140.372 217.393C145.555 202.622 155.492 195.128 164.774 198.884C174.057 202.64 180.764 219.972 182.702 231.222C184.639 242.471 185.285 248.096 184.863 252.085C184.441 256.075 184.432 257.943 187.239 258.177C190.046 258.411 312.955 254.197 322.667 253.019C332.38 251.842 338.864 250.441 339.51 247.628C340.156 244.816 340.156 246.46 340.156 244.825C340.156 243.19 339.079 215.301 338.433 211.311C337.788 207.321 337.348 204.518 335.85 202.173C334.232 199.899 332.508 197.716 330.684 195.633C330.684 195.633 331.33 190.475 328.523 186.962C325.716 183.449 284.031 165.865 284.031 165.865C284.031 165.865 254.437 144.768 243.424 137.742C232.411 130.716 214.914 123.727 197.417 120.634C179.92 117.542 151.411 116.411 134.999 116.178C122.384 115.991 100.263 118.429 90.6367 119.578Z" fill="#00AFF5"/>
<path d="M187.868 258.672H187.205C186.772 258.674 186.343 258.577 185.945 258.389C185.548 258.201 185.191 257.925 184.897 257.579C184.036 256.467 184.174 254.664 184.458 252.029C184.872 248.245 184.329 243.013 182.306 231.315C180.523 220.981 174.151 203.154 164.654 199.324C155.656 195.689 145.848 203.192 140.802 217.562C135.756 231.932 140.122 254.122 140.122 254.346L140.243 254.963L43.9844 246.47C42.5842 246.303 41.2178 245.893 39.9374 245.255C39.0763 244.769 38.8869 242.499 38.5855 236.958C38.2411 230.605 37.7245 221 35.1413 211.928C33.1006 204.64 29.5013 199.884 24.9893 198.529C21.3901 197.446 17.4723 198.651 14.2433 201.828C9.0769 206.92 10.4202 225.457 10.9971 233.371C11.2726 237.108 11.2726 237.379 11.0487 237.64L10.9196 237.79H10.7129C10.2738 237.79 9.75714 237.36 8.82719 236.566C7.52978 235.419 6.14086 234.4 4.67687 233.52C1.60287 231.745 1.43066 230.605 0.96569 227.578C0.914027 227.213 0.853753 226.821 0.784868 226.391C0.113239 222.271 0.784866 190.98 1.20679 182.693C1.62871 174.405 4.46161 170.789 5.11601 170.079C5.46359 166.654 5.97808 163.251 6.65732 159.886C7.27728 157.195 10.9626 156.092 14.8977 154.924C16.9557 154.381 18.9711 153.662 20.9251 152.775C24.3124 150.785 27.6005 148.602 30.7757 146.235C38.1894 141.012 48.35 133.864 57.2103 129.576C64.4708 126.14 71.9786 123.356 79.6582 121.251C83.2385 120.262 86.8782 119.547 90.5507 119.111L90.5937 119.579L90.5507 119.111C99.6607 118.028 122.238 115.533 134.938 115.701C153.469 115.972 180.945 117.289 197.417 120.158C213.777 123.008 231.438 129.585 243.57 137.331C254.29 144.17 282.938 164.567 284.161 165.435C286.391 166.37 325.957 183.104 328.781 186.645C331.364 189.896 331.157 194.39 331.063 195.455C332.861 197.51 334.56 199.665 336.152 201.912C337.684 204.294 338.141 207.097 338.735 210.984L338.778 211.246C339.432 215.273 340.5 243.461 340.5 244.835C340.5 245.713 340.5 245.769 340.362 246.04C340.11 246.581 339.936 247.161 339.846 247.759C339.122 250.899 332.716 252.291 322.624 253.505C313.196 254.645 198.123 258.672 187.868 258.672ZM160.03 197.492C161.701 197.483 163.361 197.8 164.929 198.427C174.754 202.398 181.289 220.589 183.124 231.128C185.164 242.938 185.707 248.236 185.293 252.132C185.044 254.449 184.915 256.15 185.535 256.972C185.761 257.214 186.03 257.403 186.327 257.528C186.623 257.654 186.939 257.712 187.257 257.7C189.228 257.7 311.611 253.87 322.581 252.543C330.374 251.609 338.425 250.273 339.062 247.507C339.171 246.82 339.377 246.155 339.673 245.535C339.688 245.293 339.688 245.049 339.673 244.807C339.673 243.443 338.606 215.385 337.951 211.376V211.115C337.331 207.377 336.892 204.631 335.471 202.426C333.856 200.149 332.131 197.966 330.305 195.885L330.167 195.726V195.502C330.167 195.455 330.753 190.503 328.109 187.196C325.948 184.486 298.17 172.303 283.79 166.239L283.704 166.192C283.412 165.977 253.998 145.02 243.114 138.078C231.059 130.389 213.502 123.858 197.262 121.027C180.842 118.168 153.408 116.85 134.904 116.579C122.238 116.402 99.721 118.906 90.6282 119.99C86.9961 120.416 83.3964 121.122 79.8563 122.101C72.2238 124.191 64.7621 126.957 57.5461 130.37C48.7461 134.631 38.6028 141.76 31.2234 146.964C28.025 149.373 24.711 151.597 21.2954 153.626C19.2962 154.533 17.2349 155.27 15.1302 155.831C11.4534 156.924 7.99197 157.951 7.49255 160.11C6.82953 163.506 6.32659 166.936 5.98569 170.387V170.565L5.86514 170.686C5.86514 170.686 2.53282 173.985 2.11951 182.786C1.67176 192.251 1.0518 222.392 1.68037 226.27C1.74926 226.699 1.80953 227.101 1.86981 227.466C2.32617 230.455 2.4295 231.203 5.13324 232.735C6.65321 233.634 8.09431 234.682 9.43855 235.865C9.78298 236.155 10.1532 236.473 10.4288 236.678C10.4288 235.996 10.3254 234.753 10.2307 233.473C9.58493 224.737 8.2589 206.565 13.7439 201.164C17.1881 197.763 21.4159 196.493 25.3079 197.651C30.1127 199.099 33.9186 204.079 36.0454 211.666C38.6286 220.851 39.1366 230.521 39.4896 236.893C39.6877 240.415 39.8857 244.059 40.3507 244.368C41.5357 244.948 42.7963 245.326 44.0877 245.489L139.184 253.898C138.512 250.16 135.283 230.54 139.967 217.225C144.298 204.911 152.091 197.492 160.03 197.492Z" fill="#054752"/>
<path d="M254.411 195.624L260.671 201.015L206.252 196.324L186.809 178.75L185.293 172.181L224.61 187.187L254.411 195.624Z" fill="#054752"/>
<path d="M262.049 201.594L206.079 196.773L205.967 196.679L186.421 179.011L184.699 171.452L224.764 186.738L254.643 195.194L262.049 201.594ZM206.424 195.913L259.31 200.473L254.221 196.091L224.506 187.682L185.913 172.957L187.196 178.563L206.424 195.913Z" fill="#054752"/>
<path d="M230.585 198.417L235.407 195.614H252.921C252.921 195.614 233.694 193.97 232.402 193.97C231.111 193.97 226.779 195.838 225.057 196.315C223.335 196.791 216.851 196.782 214.036 195.138C211.22 193.493 208.206 186.729 208.206 186.729L234.185 189.905L224.627 187.205L191.958 174.723C189.185 176.049 188.807 179.843 188.755 180.506L188.962 180.693L203.436 185.776L212.262 196.848L230.585 198.417Z" fill="white"/>
<path d="M230.68 198.894L212.055 197.296L203.195 186.177L188.686 181.057L188.316 180.712V180.478C188.368 179.693 188.79 175.722 191.76 174.293L191.915 174.218L224.73 186.738L234.262 189.438L234.107 190.373L208.921 187.299C209.782 189.093 212.098 193.531 214.208 194.773C216.886 196.343 223.18 196.38 224.92 195.904C225.54 195.736 226.547 195.371 227.606 194.97C229.14 194.305 230.737 193.825 232.368 193.54C233.659 193.54 252.172 195.119 252.913 195.184V196.119H235.511L230.68 198.894ZM212.452 196.39L230.534 197.941L235.33 195.138H241.728C237.233 194.764 232.962 194.428 232.385 194.428C230.852 194.729 229.349 195.192 227.899 195.81C226.823 196.203 225.807 196.577 225.144 196.745C223.258 197.259 216.714 197.221 213.821 195.53C210.927 193.839 207.931 187.121 207.793 186.888L207.457 186.131L228.235 188.672L224.506 187.635L191.984 175.227C189.823 176.386 189.323 179.263 189.22 180.291L203.694 185.374L212.452 196.39Z" fill="#054752"/>
<path d="M313.557 195.166L309.062 195.461L309.114 196.394L313.609 196.098L313.557 195.166Z" fill="#054752"/>
<path d="M267.172 197.501L257.83 196.567L257.907 195.633L267.146 196.567C268.197 196.39 284.307 193.764 292.246 194.465C298.377 194.988 303.302 195.399 305.403 195.549L305.343 196.483C303.242 196.324 298.308 195.932 292.177 195.399C284.101 194.717 267.387 197.483 267.207 197.511L267.172 197.501Z" fill="#054752"/>
<path d="M328.497 186.953C327.722 186.019 324.019 183.954 319.025 181.525L318.319 181.796C318.319 181.796 322.202 184.841 321.341 187.887C320.48 190.933 315.314 194.428 315.314 194.428L315.529 199.585C315.529 199.585 328.058 198.651 330.649 195.605C330.658 195.624 331.278 190.466 328.497 186.953Z" fill="white"/>
<path d="M315.125 200.099L314.875 194.194L315.09 194.054C315.142 194.054 320.153 190.597 320.954 187.747C321.72 185.056 318.13 182.197 318.095 182.141L317.424 181.618L319.077 180.992L319.232 181.076C324.932 183.879 328.075 185.673 328.824 186.617C331.726 190.251 331.106 195.437 331.08 195.652V195.801L330.985 195.913C328.316 199.053 316.098 200.006 315.581 200.043L315.125 200.099ZM315.762 194.699L315.943 199.099C318.138 198.903 327.877 197.894 330.245 195.362C330.314 194.512 330.555 190.195 328.17 187.205C327.731 186.663 325.871 185.337 319.559 182.235C320.722 183.421 322.444 185.654 321.789 187.981C320.945 190.877 316.778 193.979 315.779 194.699H315.762Z" fill="#054752"/>
<path d="M323.744 195.624C322.443 194.213 316.614 194.913 316.614 194.913C316.614 194.913 319.421 194.213 320.919 193.746C322.418 193.278 322.641 192.811 323.296 189.522C323.507 188.646 323.454 187.72 323.144 186.879C322.834 186.038 322.284 185.327 321.574 184.851L318.577 181.711L318.336 181.805C318.336 181.805 322.22 184.851 321.358 187.897C320.497 190.943 315.331 194.437 315.331 194.437L315.546 199.594C318.711 199.334 321.858 198.853 324.966 198.156C324.798 197.199 324.373 196.318 323.744 195.624Z" fill="#054752"/>
<path d="M315.125 200.099L314.875 194.194L315.09 194.054C315.142 194.054 320.153 190.597 320.954 187.747C321.72 185.056 318.13 182.197 318.095 182.141L317.424 181.618L318.698 181.132L321.85 184.44C322.622 184.977 323.219 185.764 323.557 186.689C323.896 187.614 323.958 188.631 323.735 189.597C323.072 192.923 322.797 193.624 321.057 194.166L320.713 194.269C322.099 194.353 323.443 194.614 324.045 195.259C324.737 196.029 325.201 197.005 325.38 198.062L325.457 198.511L325.053 198.613C321.928 199.318 318.764 199.801 315.581 200.062L315.125 200.099ZM315.762 194.698L315.943 199.099C318.794 198.851 321.629 198.42 324.433 197.81C324.254 197.106 323.913 196.463 323.443 195.941C322.581 195.007 318.836 195.11 316.666 195.371L316.52 194.437C316.52 194.437 319.335 193.727 320.825 193.269C322.065 192.886 322.246 192.708 322.9 189.401C323.074 188.68 323.049 187.92 322.828 187.214C322.608 186.508 322.202 185.888 321.66 185.43C321.97 186.246 322.016 187.152 321.789 187.999C320.945 190.877 316.778 193.979 315.779 194.698H315.762Z" fill="#054752"/>
<path d="M331.278 205.929C331.278 205.929 299.961 210.853 245.533 207.34C245.533 207.34 249.417 212.731 259.138 214.815C268.859 216.898 298.015 216.459 312.92 214.815C327.825 213.17 328.255 212.012 329.978 210.143C330.48 209.598 330.859 208.933 331.085 208.202C331.311 207.471 331.377 206.693 331.278 205.929Z" fill="#054752"/>
<path d="M282 216.711C272.476 216.711 263.693 216.3 259.078 215.3C249.314 213.179 245.379 207.826 245.215 207.63L244.629 206.807L245.585 206.873C299.333 210.339 330.925 205.518 331.244 205.471L331.648 205.406L331.726 205.836C331.847 206.68 331.782 207.543 331.536 208.355C331.291 209.167 330.872 209.905 330.314 210.507L330.09 210.75C328.454 212.553 327.378 213.749 312.989 215.328C305.369 216.141 293.176 216.711 282 216.711ZM246.618 207.872C248.134 209.442 252.095 212.824 259.25 214.413C268.533 216.431 297.344 216.123 312.903 214.413C326.981 212.862 327.972 211.769 329.47 210.106L329.702 209.853C330.107 209.415 330.424 208.891 330.633 208.314C330.842 207.737 330.938 207.119 330.916 206.499C326.921 207.022 296.362 211.002 246.618 207.872Z" fill="#054752"/>
<path d="M338.218 244.835C322.83 247.24 307.324 248.65 291.781 249.058C267.801 249.525 239.721 246.713 235.192 248.591C230.663 250.469 225.901 253.972 223.955 254.683C222.009 255.393 212.942 255.85 212.942 255.85C212.942 255.85 231.731 238.743 239.291 236.164C246.851 233.585 256.788 233.361 259.595 233.361C262.402 233.361 324.39 231.24 327.834 231.007C331.278 230.773 334.722 232.875 335.825 235.23C336.927 237.584 338.218 244.835 338.218 244.835Z" fill="#054752"/>
<path d="M211.685 256.383L212.667 255.449C213.433 254.748 231.61 238.248 239.162 235.669C247.075 232.978 257.571 232.866 259.595 232.866C262.746 232.866 324.596 230.745 327.817 230.521C331.623 230.269 335.136 232.642 336.221 234.996C337.306 237.351 338.58 244.433 338.64 244.732L338.726 245.208L338.279 245.283C322.869 247.677 307.343 249.087 291.781 249.506C280.906 249.712 269.394 249.263 259.19 248.862C247.204 248.385 237.741 248.011 235.338 249.002C232.786 250.145 230.308 251.478 227.925 252.991C226.7 253.802 225.419 254.508 224.093 255.103C222.113 255.822 213.338 256.28 212.959 256.299L211.685 256.383ZM328.376 231.418H327.877C324.648 231.642 262.746 233.763 259.595 233.763C257.588 233.763 247.213 233.894 239.42 236.566C233.022 238.743 218.212 251.711 214.225 255.252C216.808 255.094 222.388 254.701 223.826 254.178C225.098 253.596 226.33 252.916 227.511 252.141C229.929 250.602 232.444 249.25 235.037 248.096C237.62 247.03 247.092 247.413 259.216 247.89C269.385 248.292 280.915 248.74 291.773 248.535C307.141 248.149 322.476 246.801 337.702 244.498C337.392 242.845 336.341 237.397 335.454 235.482C334.567 233.567 331.536 231.418 328.376 231.418Z" fill="#054752"/>
<path d="M218.126 208.508C218.126 208.508 206.243 248.114 204.736 247.647C203.229 247.18 201.714 245.302 201.714 244.368C201.714 243.433 204.521 217.179 206.88 212.264C209.24 207.349 218.126 208.508 218.126 208.508Z" fill="#054752"/>
<path d="M204.814 248.133C204.748 248.143 204.681 248.143 204.616 248.133C202.893 247.61 201.283 245.554 201.283 244.396C201.283 243.237 204.09 217.085 206.51 212.068C208.929 207.051 217.807 208.022 218.177 208.078L218.694 208.144L218.539 208.686C218.539 208.779 215.525 218.702 212.408 228.437C206.587 246.526 205.442 248.133 204.814 248.133ZM215.895 208.891C213.192 208.891 208.783 209.386 207.285 212.507C205.02 217.179 202.118 243.34 202.118 244.396C202.118 245.012 203.307 246.666 204.702 247.199C206.234 245.405 213.269 223.196 217.549 208.966C217.161 208.891 216.584 208.863 215.895 208.863V208.891Z" fill="#054752"/>
<path d="M179.051 203.248L178.75 202.369C179.275 202.164 179.826 201.949 180.411 201.743C184.278 200.342 202.98 195.82 203.781 195.633L203.961 196.567C203.772 196.614 184.501 201.239 180.713 202.64C180.11 202.837 179.559 203.042 179.051 203.248Z" fill="#054752"/>
<path d="M174.255 205.415L173.876 204.574C173.876 204.574 174.599 204.182 175.805 203.64L176.141 204.5C174.961 205.032 174.263 205.406 174.255 205.415Z" fill="#054752"/>
<path d="M172.765 165.155C172.765 165.155 165.015 164.445 161.571 161.633C158.127 158.82 129.178 124.371 129.178 124.371C129.178 124.371 204.34 126.016 213.192 126.483C222.043 126.95 222.052 128.828 232.195 132.809C242.339 136.789 274.534 161.165 274.534 161.165L280.794 165.837C280.794 165.837 265.673 166.304 228.958 165.37C192.242 164.436 172.765 165.155 172.765 165.155Z" fill="#878787"/>
<path d="M268.61 166.435C260.214 166.435 247.221 166.323 228.915 165.856C192.63 164.921 172.946 165.613 172.782 165.622H172.73C172.412 165.622 164.791 164.875 161.278 162.006C157.765 159.138 130.004 126.1 128.825 124.689L128.145 123.886H129.152C129.901 123.886 204.417 125.53 213.183 125.997C219.211 126.315 221.234 127.296 224.928 129.09C226.736 129.959 228.975 131.043 232.307 132.351C242.399 136.312 273.432 159.773 274.74 160.764L282.094 166.267H280.777C280.699 166.323 276.876 166.435 268.61 166.435ZM193.37 164.436C202.403 164.436 214.32 164.548 228.932 164.921C259.259 165.697 274.99 165.51 279.416 165.417L274.25 161.558C273.931 161.306 242.003 137.162 232.058 133.248C228.699 131.93 226.435 130.837 224.618 129.959C220.898 128.165 219.038 127.259 213.183 126.95C204.986 126.52 139.132 125.082 130.177 124.867C134.559 130.062 158.747 158.745 161.838 161.306C165.058 163.922 172.352 164.678 172.825 164.725C173.299 164.772 180.325 164.436 193.37 164.436Z" fill="#054752"/>
<path d="M143.825 175.937C143.825 175.937 148.363 170.079 148.13 166.089C147.898 162.1 132.373 138.2 124.391 131.173C116.409 124.147 106.033 121.326 100.195 121.326C94.3567 121.326 77.0838 124.839 66.286 129.295C55.4883 133.752 41.453 140.788 41.453 140.788L24.3867 152.934C24.3867 152.934 45.3364 159.736 83.9981 166.061C122.66 172.387 143.825 175.937 143.825 175.937Z" fill="#878787"/>
<path d="M144.005 176.432H143.764C143.549 176.432 122.151 172.845 83.9375 166.594C45.7235 160.343 24.4725 153.513 24.2658 153.448L23.4048 153.168L41.2374 140.423C41.4354 140.321 55.4708 133.304 66.1566 128.894C77.2298 124.334 94.4597 120.896 100.22 120.896C106.54 120.859 116.873 123.97 124.623 130.809C132.57 137.798 148.311 161.726 148.543 166.061C148.767 170.182 144.315 175.993 144.126 176.236L144.005 176.432ZM25.4025 152.794C29.8025 154.139 50.2699 160.1 84.0667 165.632C120.094 171.527 141.172 174.975 143.652 175.433C144.427 174.377 147.897 169.472 147.716 166.089C147.518 162.352 132.269 138.676 124.115 131.519C116.512 124.829 106.385 121.784 100.194 121.784C94.4941 121.784 77.4279 125.194 66.4407 129.725C55.7807 134.117 41.7713 141.124 41.6335 141.19L25.4025 152.794Z" fill="#054752"/>
<path d="M124.391 131.173C116.4 124.138 106.033 121.326 100.195 121.326C94.3567 121.326 77.0838 124.839 66.286 129.295C55.4883 133.752 41.453 140.788 41.453 140.788L24.3867 152.934C24.3867 152.934 30.0353 154.803 40.8502 157.409L50.3219 139.106L58.3126 134.658L49.8053 159.493L51.5963 159.895L59.8281 134.668C67.1729 130.445 88.3379 124.82 88.3379 124.82C82.0693 134.023 77.2215 157.895 75.9299 164.697C78.5131 165.155 81.2255 165.631 84.0153 166.071L84.4545 166.145C84.7731 145.366 93.9262 124.101 93.9262 124.101C93.9262 124.101 102.537 123.166 113.584 127.38C120.159 129.892 126.034 134.186 130.65 139.853L125.019 172.835L127.301 173.209L132.166 142.656L138.856 151.794L135.507 174.554L143.825 175.937C143.825 175.937 148.363 170.079 148.13 166.089C147.898 162.1 132.373 138.2 124.391 131.173Z" fill="#054752"/>
<path d="M144.005 176.432L135.016 174.947L138.4 151.925L132.415 143.759L127.645 173.732L124.502 173.218L130.185 139.975C125.617 134.483 119.861 130.309 113.438 127.829C107.282 125.408 100.753 124.297 94.21 124.558C93.2026 126.988 85.1517 146.898 84.8589 166.145V166.678L83.9376 166.519C81.1391 166.071 78.4526 165.585 75.8436 165.146L75.4044 165.071L75.4905 164.594C76.7821 157.783 81.3371 135.434 87.3129 125.567C82.8957 126.782 66.5183 131.407 60.155 134.985L51.8543 160.427L49.2109 159.848L57.5029 135.621L50.6144 139.461L41.0997 157.97L40.7811 157.895C30.0781 155.279 24.3434 153.429 24.2917 153.41L23.4307 153.13L41.2633 140.386C41.4613 140.283 55.4967 133.266 66.1824 128.856C77.2557 124.297 94.4856 120.858 100.246 120.858C106.54 120.858 116.873 123.97 124.623 130.809C132.57 137.798 148.311 161.726 148.543 166.061C148.767 170.182 144.315 175.993 144.126 176.236L144.005 176.432ZM136.006 174.162L143.652 175.433C144.427 174.377 147.897 169.472 147.716 166.089C147.518 162.352 132.269 138.676 124.115 131.519C116.512 124.829 106.385 121.783 100.194 121.783C94.4942 121.783 77.4279 125.194 66.4408 129.725C55.7808 134.117 41.7713 141.124 41.6335 141.189L25.4025 152.794C27.3743 153.401 32.5493 154.924 40.6347 156.905L49.9945 138.788L59.0873 133.724L50.3647 159.175L51.2947 159.381L59.4575 134.359L59.6039 134.275C66.9143 130.071 87.3474 124.614 88.217 124.39L89.3709 124.082L88.6648 125.119C82.6374 134.014 77.8757 156.783 76.4291 164.361C78.8745 164.791 81.4032 165.22 84.015 165.65C84.48 145.179 93.4867 124.185 93.547 123.97L93.6503 123.727H93.8914C100.63 123.397 107.361 124.522 113.696 127.034C120.318 129.587 126.241 133.909 130.917 139.601L131.038 139.769L125.449 172.471L126.879 172.704L131.83 141.582L139.244 151.701L136.006 174.162Z" fill="#054752"/>
<path d="M141.233 159.53C141.233 159.53 137.35 155.793 135.404 157.419C134.105 158.681 133.137 160.292 132.596 162.09L128.705 161.614C128.705 161.614 125.26 151.775 122.677 151.542C120.094 151.308 107.772 150.608 104.965 151.775C102.158 152.943 101.727 155.513 101.521 157.167C101.314 158.82 100.875 163.959 103.028 165.136C105.18 166.314 125.493 168.874 125.493 168.874L132.381 171.677L131.296 174.255L143.825 175.9C143.825 175.9 147.717 168.425 148.13 166.052C148.543 163.679 141.233 159.53 141.233 159.53Z" fill="#054752"/>
<path d="M144.057 176.432L130.65 174.676L131.778 171.976L125.346 169.36C123.968 169.182 104.965 166.743 102.795 165.566C100.324 164.23 100.832 158.764 101.073 157.157C101.262 155.709 101.658 152.71 104.801 151.392C107.815 150.14 120.843 150.963 122.703 151.131C125.286 151.364 128.368 159.428 129.023 161.24L132.312 161.642C132.876 159.884 133.853 158.316 135.145 157.092C137.255 155.307 141.035 158.746 141.491 159.175C142.86 159.97 149.043 163.688 148.578 166.22C148.138 168.612 144.367 175.891 144.212 176.199L144.057 176.432ZM131.933 173.91L143.566 175.433C144.264 174.069 147.329 167.958 147.699 165.996C147.949 164.623 143.936 161.623 141.009 159.942L140.923 159.876C139.915 158.942 137.005 156.643 135.644 157.783C134.417 158.994 133.501 160.53 132.984 162.24L132.872 162.614L128.377 162.072L128.282 161.801C126.982 158.064 124.287 152.177 122.599 152.028C119.637 151.757 107.72 151.093 105.077 152.233C102.433 153.373 102.072 155.887 101.891 157.251C101.512 160.175 101.615 163.894 103.174 164.725C104.896 165.66 119.87 167.715 125.492 168.463H125.596L132.941 171.453L131.933 173.91Z" fill="#054752"/>
<path d="M127.413 162.81L128.704 161.633C128.704 161.633 125.26 151.794 122.677 151.561C120.094 151.327 107.772 150.626 104.965 151.794C102.158 152.962 101.727 155.531 101.52 157.185C101.327 158.639 101.29 160.113 101.409 161.577C107.402 162.128 126.345 163.791 127.413 162.81Z" fill="white"/>
<path d="M124.08 163.567C119.947 163.567 112.344 163.053 101.348 162.044H100.995L100.952 161.661C100.836 160.16 100.873 158.649 101.064 157.157C101.254 155.709 101.65 152.71 104.793 151.392C107.806 150.14 120.834 150.963 122.694 151.131C125.475 151.383 128.722 160.474 129.109 161.511L129.221 161.82L127.688 163.212C127.396 163.436 126.19 163.567 124.08 163.567ZM101.779 161.147C116.262 162.474 126.199 163.016 127.146 162.436L128.196 161.502C126.862 157.765 124.27 152.159 122.625 152.037C119.663 151.766 107.746 151.103 105.103 152.243C102.459 153.383 102.098 155.896 101.917 157.26C101.754 158.548 101.708 159.849 101.779 161.147Z" fill="#054752"/>
<path d="M134.758 181.085L133.896 180.833C134.603 178.114 135.171 176.274 135.179 176.255L135.997 176.554C135.997 176.554 135.464 178.394 134.758 181.085Z" fill="#054752"/>
<path d="M127.843 247.647C126.233 247.647 52.4572 238.36 51.7598 238.304C50.428 238.101 49.1768 237.492 48.1519 236.547L47.2909 235.884C45.1124 234.314 32.2136 195.876 30.9307 190.858C30.6592 189.703 30.4777 188.525 30.3882 187.336L31.2492 187.243C31.3379 188.377 31.5107 189.502 31.7659 190.606C33.4277 197.044 46.0079 233.725 47.7903 235.108L48.6513 235.772C49.5689 236.628 50.6915 237.186 51.8889 237.379C52.5778 237.472 126.345 246.722 127.86 246.722C129.083 246.722 129.41 246.498 129.815 244.283C130.039 243.069 130.211 231.95 130.383 221.196C130.53 211.638 130.685 201.743 130.891 197.716C131.2 193.464 131.869 189.251 132.889 185.131L133.75 185.355C132.742 189.417 132.079 193.57 131.77 197.763C131.572 201.781 131.417 211.657 131.27 221.215C131.089 232.511 130.926 243.172 130.685 244.47C130.211 246.815 129.72 247.647 127.843 247.647Z" fill="#054752"/>
<path d="M30.0785 182.767C29.8855 176.386 30.0091 169.999 30.4487 163.632C30.664 162.698 34.8057 160.269 38.1983 158.409L38.5858 159.241C35.2104 161.109 31.5423 163.315 31.2409 163.912C30.8369 170.181 30.7248 176.468 30.9051 182.749L30.0785 182.767Z" fill="#054752"/>
<path d="M76.4036 238.509H75.5426V237.332C75.5426 237.098 75.4048 234.781 75.2068 231.577C74.9829 227.839 74.6643 222.775 74.3457 217.3L75.2068 217.244C75.5167 222.719 75.8267 227.821 76.0678 231.511C76.3089 235.202 76.4036 237.117 76.4036 237.332V238.509Z" fill="#054752"/>
<path d="M73.958 209.545C73.2949 197.128 73.0452 189.354 73.2002 186.448C73.6308 178.516 76.6445 167.93 76.6445 167.827L77.5055 168.107C77.5055 168.21 74.4918 178.684 74.0613 186.504C73.9063 189.373 74.156 197.109 74.819 209.489L73.958 209.545Z" fill="#054752"/>
<path d="M41.4099 173.33C40.9536 175.872 39.6362 177.731 38.4651 177.488C37.2941 177.245 36.743 174.984 37.1735 172.443C37.6041 169.902 38.8956 168.042 40.1097 168.285C41.3238 168.528 41.8663 170.789 41.4099 173.33Z" fill="#054752"/>
<path d="M38.6803 177.974C38.5829 177.983 38.485 177.983 38.3876 177.974C37.9746 177.839 37.6055 177.579 37.3235 177.225C37.0414 176.871 36.858 176.437 36.7946 175.975C36.5252 174.795 36.5076 173.565 36.7429 172.377C37.251 169.574 38.7664 167.547 40.1872 167.855C41.608 168.164 42.3312 170.611 41.8232 173.461C41.6306 174.657 41.1921 175.791 40.5402 176.778C40.334 177.117 40.0594 177.401 39.7372 177.608C39.415 177.816 39.0536 177.941 38.6803 177.974ZM39.903 168.733C39.1109 168.733 38.0087 170.21 37.5954 172.527C37.378 173.569 37.378 174.652 37.5954 175.694C37.7934 176.46 38.1293 176.946 38.5253 177.03C38.9214 177.114 39.3864 176.797 39.8428 176.171C40.4143 175.3 40.7969 174.3 40.9622 173.246C41.4013 170.798 40.8072 168.911 40.0064 168.743L39.903 168.733Z" fill="#054752"/>
<path d="M41.2205 171.546L36.0542 170.967C35.8318 170.935 35.6058 170.954 35.3904 171.022C35.175 171.089 34.9746 171.204 34.8018 171.359C34.629 171.514 34.4875 171.706 34.3859 171.923C34.2844 172.14 34.225 172.378 34.2115 172.62C34.1843 173.071 34.3173 173.516 34.5832 173.864C34.849 174.211 35.2276 174.435 35.6409 174.489L40.8072 175.199C41.0481 175.227 41.2916 175.199 41.5219 175.117C41.7522 175.036 41.964 174.903 42.1436 174.726C42.3232 174.55 42.4665 174.335 42.5641 174.094C42.6618 173.853 42.7115 173.593 42.7102 173.331C42.6956 172.89 42.5381 172.47 42.2656 172.143C41.993 171.817 41.6229 171.605 41.2205 171.546Z" fill="#00AFF5"/>
<path d="M41.0484 175.685C40.9596 175.694 40.8702 175.694 40.7814 175.685L35.615 174.984C35.078 174.918 34.5859 174.628 34.2433 174.174C33.9008 173.72 33.7349 173.139 33.781 172.555C33.7973 172.254 33.8708 171.96 33.9967 171.692C34.1227 171.423 34.2984 171.186 34.5129 170.995C34.7237 170.799 34.9691 170.651 35.234 170.561C35.499 170.471 35.778 170.441 36.0542 170.472L41.2206 171.051C41.6326 171.095 42.0236 171.269 42.3459 171.551C42.6681 171.833 42.9074 172.211 43.0345 172.639C43.1615 173.066 43.1708 173.525 43.0612 173.958C42.9516 174.391 42.7279 174.781 42.4174 175.078C42.0415 175.449 41.5565 175.664 41.0484 175.685ZM35.882 171.425C35.5979 171.423 35.3227 171.532 35.107 171.733C34.9811 171.849 34.8787 171.991 34.8061 172.152C34.7335 172.313 34.6923 172.488 34.6851 172.667C34.6649 173 34.7622 173.33 34.9572 173.588C35.1522 173.847 35.4305 174.015 35.7356 174.059L40.902 174.76C41.0698 174.786 41.2407 174.776 41.4047 174.729C41.5686 174.682 41.7223 174.6 41.8565 174.488C41.9906 174.376 42.1027 174.235 42.1859 174.075C42.2691 173.915 42.3217 173.738 42.3408 173.555C42.3598 173.372 42.3448 173.187 42.2967 173.011C42.2486 172.834 42.1683 172.67 42.0606 172.528C41.9529 172.386 41.82 172.269 41.6698 172.184C41.5196 172.098 41.3551 172.047 41.1861 172.032L36.0197 171.453L35.882 171.425Z" fill="#054752"/>
<path d="M86.3747 179.544C85.8494 182.618 84.3167 184.87 82.9304 184.571C81.5441 184.272 80.8983 181.534 81.4236 178.46C81.9488 175.386 83.4901 173.134 84.8678 173.433C86.2455 173.732 86.8999 176.47 86.3747 179.544Z" fill="#054752"/>
<path d="M83.1972 185.066C83.0855 185.075 82.9732 185.075 82.8614 185.066C81.2512 184.711 80.4332 181.786 81.0188 178.413C81.4062 176.134 82.3448 174.218 83.4642 173.405C83.6748 173.233 83.9156 173.11 84.1717 173.042C84.4278 172.975 84.694 172.965 84.9538 173.013C86.564 173.368 87.382 176.292 86.7965 179.665C86.409 181.945 85.4705 183.86 84.3597 184.673C84.0159 184.925 83.6118 185.061 83.1972 185.066ZM84.618 173.854C84.3755 173.869 84.1423 173.96 83.9464 174.115C83.025 174.788 82.2242 176.526 81.8626 178.525C81.346 181.543 82.0692 183.879 83.0336 184.131C83.1848 184.156 83.339 184.147 83.487 184.105C83.6349 184.063 83.7736 183.99 83.8947 183.888C84.8074 183.216 85.6168 181.487 85.9699 179.478C86.4865 176.461 85.7718 174.125 84.7988 173.872L84.618 173.854Z" fill="#054752"/>
<path d="M86.1505 177.376L80.1231 176.675C79.863 176.651 79.6011 176.684 79.3532 176.773C79.1052 176.861 78.8762 177.003 78.68 177.189C78.4838 177.376 78.3243 177.604 78.2113 177.859C78.0982 178.115 78.0339 178.392 78.0221 178.675C77.9817 179.214 78.1319 179.75 78.4421 180.173C78.7524 180.596 79.1994 180.876 79.6925 180.955L85.72 181.805C86.0027 181.838 86.2888 181.806 86.559 181.709C86.8293 181.613 87.0774 181.455 87.2869 181.247C87.4964 181.038 87.6624 180.783 87.7738 180.499C87.8852 180.215 87.9395 179.908 87.9329 179.6C87.9429 179.055 87.766 178.526 87.4366 178.115C87.1072 177.704 86.6488 177.441 86.1505 177.376Z" fill="#00AFF5"/>
<path d="M85.9525 182.291H85.6512L79.6237 181.44C79.0195 181.341 78.4727 180.996 78.0938 180.476C77.715 179.955 77.5324 179.298 77.583 178.637C77.6035 178.279 77.6903 177.929 77.8382 177.608C77.9862 177.287 78.1922 177.002 78.444 176.769C78.6807 176.552 78.9554 176.39 79.2513 176.292C79.5473 176.195 79.8585 176.163 80.1662 176.199L86.1936 176.9C86.7955 176.976 87.3494 177.293 87.7474 177.789C88.1455 178.285 88.359 178.924 88.3463 179.581C88.3462 179.969 88.2692 180.353 88.1207 180.706C87.9721 181.059 87.7554 181.373 87.4852 181.627C87.065 182.042 86.5205 182.278 85.9525 182.291ZM79.9251 177.133C79.5867 177.135 79.2601 177.267 79.0037 177.507C78.7776 177.717 78.611 177.992 78.5231 178.301C78.4352 178.609 78.4297 178.939 78.5072 179.251C78.5847 179.563 78.742 179.844 78.9609 180.063C79.1799 180.282 79.4515 180.429 79.7443 180.487L85.7717 181.347C85.9834 181.376 86.1984 181.355 86.402 181.286C86.6056 181.217 86.793 181.1 86.9514 180.945C87.1266 180.777 87.2664 180.57 87.3615 180.337C87.4566 180.105 87.5046 179.854 87.5024 179.6C87.5141 179.172 87.3785 178.756 87.1222 178.431C86.8658 178.106 86.5071 177.897 86.1161 177.843L80.0887 177.142L79.9251 177.133Z" fill="#054752"/>
<path d="M16.1806 161.166C16.3098 159.596 13.3047 157.849 10.9454 156.727C8.94769 157.522 7.50109 158.493 7.105 159.998C6.43862 163.393 5.93565 166.823 5.59814 170.275C5.59814 170.275 15.9653 163.744 16.1806 161.166Z" fill="#054752"/>
<path d="M5.08154 171.181L5.16765 170.247C5.49435 166.767 5.9916 163.308 6.65729 159.885C7.09643 157.97 9.08548 156.961 10.7646 156.288L10.9282 156.223L11.0832 156.298C14.9063 158.11 16.6973 159.717 16.5767 161.212C16.3529 163.894 7.54419 169.621 5.77901 170.714L5.08154 171.181ZM10.9626 157.232C8.90466 158.082 7.81973 158.998 7.56141 160.11C6.94475 163.196 6.47627 166.314 6.15787 169.453C10.0929 166.893 15.6296 162.754 15.7846 161.156C15.8276 160.175 14.0366 158.727 10.9626 157.232Z" fill="#054752"/>
<path d="M218.677 127.165L178.715 165.015C185.905 164.893 199.509 164.781 219.142 165.164L238.154 135.901C236.214 134.718 234.2 133.684 232.127 132.808C224.704 129.884 222.724 128.09 218.677 127.165Z" fill="white"/>
<path d="M219.34 165.641H219.116C200.043 165.267 186.619 165.351 178.706 165.492H177.526L218.539 126.651L218.754 126.698C220.884 127.241 222.95 128.046 224.911 129.099C226.719 129.968 228.966 131.052 232.29 132.36C234.364 133.246 236.378 134.289 238.317 135.481L238.748 135.733L219.34 165.641ZM193.301 164.436C200.25 164.436 208.8 164.501 218.9 164.697L237.508 136.06C235.732 134.991 233.891 134.055 231.997 133.257C228.639 131.94 226.383 130.847 224.566 129.968C222.717 128.987 220.777 128.219 218.78 127.679L179.868 164.538C183.393 164.476 187.876 164.442 193.318 164.436H193.301Z" fill="#054752"/>
<path d="M256.271 165.902L258.854 149.72C255.9 147.618 252.766 145.422 249.684 143.329L241.013 165.66C246.782 165.781 251.845 165.856 256.271 165.902Z" fill="white"/>
<path d="M256.624 166.37H256.262C251.518 166.314 246.394 166.239 241.03 166.127H240.393L240.634 165.491C243.467 158.204 246.532 150.299 249.313 143.152L249.477 142.656L249.907 142.946C252.749 144.88 255.831 147.038 259.078 149.346L259.319 149.514L256.624 166.37ZM241.676 165.211C246.67 165.305 251.457 165.379 255.909 165.426L258.406 149.944C255.418 147.814 252.559 145.824 249.916 144.011C247.264 150.822 244.371 158.278 241.676 165.211Z" fill="#054752"/>
</svg>
