<svg width="341" height="272" viewBox="0 0 341 272" fill="none" xmlns="http://www.w3.org/2000/svg">
<path d="M293.512 271.096V190.377" stroke="#054752" stroke-width="0.73421" stroke-linecap="round" stroke-linejoin="round"/>
<path d="M286.968 271.095V231.069" stroke="#054752" stroke-width="0.73421" stroke-linecap="round" stroke-linejoin="round"/>
<path d="M295.558 203.609C295.558 203.609 288.963 202.858 286.259 197.637C283.556 192.415 283.298 178.947 293.57 164.019C303.841 149.091 309.227 148.934 311.015 161.115C312.803 173.296 312.546 190.985 308.34 197.687C304.134 204.389 295.558 203.609 295.558 203.609Z" fill="white" stroke="#054752" stroke-width="0.73421" stroke-linecap="round" stroke-linejoin="round"/>
<path d="M297.897 175.492C299.113 171.343 300.565 167.624 302.253 165.077" stroke="#054752" stroke-width="0.73421" stroke-linecap="round" stroke-linejoin="round"/>
<path d="M292.79 202.715C293.695 194.506 295.129 186.363 297.082 178.338" stroke="#054752" stroke-width="0.73421" stroke-linecap="round" stroke-linejoin="round"/>
<path d="M299.485 229.81C299.485 229.81 295.251 226.527 295.594 221.806C295.937 217.085 301.373 207.679 314.685 201.714C327.996 195.748 331.794 197.866 327.932 207.007C324.069 216.148 316.487 228.243 310.765 231.104C305.043 233.965 299.485 229.81 299.485 229.81Z" fill="white" stroke="#054752" stroke-width="0.73421" stroke-linecap="round" stroke-linejoin="round"/>
<path d="M312.868 211.399C315.443 209.052 318.003 207.107 320.228 206.048" stroke="#054752" stroke-width="0.73421" stroke-linecap="round" stroke-linejoin="round"/>
<path d="M311.158 213.015C306.447 217.733 302.046 222.75 297.983 228.036C297.983 228.036 294.571 232.628 293.562 241.748" stroke="#054752" stroke-width="0.73421" stroke-linecap="round" stroke-linejoin="round"/>
<path d="M297.082 257.076C297.082 257.076 294.628 255.174 294.829 252.441C295.029 249.709 298.176 244.258 305.894 240.796C313.612 237.335 315.8 238.572 313.562 243.872C311.323 249.172 306.931 256.175 303.626 257.827C300.322 259.479 297.082 257.076 297.082 257.076Z" fill="white" stroke="#054752" stroke-width="0.73421" stroke-linecap="round" stroke-linejoin="round"/>
<path d="M304.814 246.44C306.09 245.208 307.535 244.165 309.106 243.343" stroke="#054752" stroke-width="0.73421" stroke-linecap="round" stroke-linejoin="round"/>
<path d="M303.827 247.377C301.098 250.106 298.549 253.009 296.195 256.067C296.195 256.067 294.213 258.728 293.627 264.014" stroke="#054752" stroke-width="0.73421" stroke-linecap="round" stroke-linejoin="round"/>
<path d="M287.533 218.895C287.533 218.895 291.76 215.611 291.424 210.891C291.088 206.17 285.644 196.764 272.326 190.799C259.007 184.833 255.224 186.95 259.086 196.092C262.949 205.233 270.531 217.328 276.253 220.189C281.975 223.05 287.533 218.895 287.533 218.895Z" fill="white" stroke="#054752" stroke-width="0.73421" stroke-linecap="round" stroke-linejoin="round"/>
<path d="M274.15 200.483C271.958 198.363 269.478 196.562 266.783 195.133" stroke="#054752" stroke-width="0.73421" stroke-linecap="round" stroke-linejoin="round"/>
<path d="M275.859 202.1C280.567 206.818 284.966 211.836 289.028 217.121C289.028 217.121 292.439 221.713 293.455 230.832" stroke="#054752" stroke-width="0.73421" stroke-linecap="round" stroke-linejoin="round"/>
<path d="M285.451 255.352C285.451 255.352 289.743 255.488 291.889 252.906C294.035 250.324 295.322 243.114 289.958 234.309C284.593 225.504 281.167 224.889 279.021 231.326C276.875 237.764 275.623 247.198 277.769 251.139C279.915 255.08 285.451 255.352 285.451 255.352Z" fill="white" stroke="#054752" stroke-width="0.73421" stroke-linecap="round" stroke-linejoin="round"/>
<path d="M286.124 248.786C286.188 249.666 286.231 250.546 286.252 251.418" stroke="#054752" stroke-width="0.73421" stroke-linecap="round" stroke-linejoin="round"/>
<path d="M282.833 230.904C284.292 236.088 285.33 241.382 285.938 246.733" stroke="#054752" stroke-width="0.73421" stroke-linecap="round" stroke-linejoin="round"/>
<path d="M8.74658 203.216H107.748V1.15015" stroke="#054752" stroke-width="0.73421" stroke-linecap="round" stroke-linejoin="round"/>
<path d="M212.808 203.216H113.806V1.15015" stroke="#054752" stroke-width="0.73421" stroke-linecap="round" stroke-linejoin="round"/>
<path d="M154.212 203.216H253.214V1.15015" stroke="#054752" stroke-width="0.73421" stroke-linecap="round" stroke-linejoin="round"/>
<path d="M233.014 48.5945L198.409 86.8332" stroke="#054752" stroke-width="0.73421" stroke-linecap="round" stroke-linejoin="round"/>
<path d="M213.816 78.1783L204.217 88.7858" stroke="#054752" stroke-width="0.73421" stroke-linecap="round" stroke-linejoin="round"/>
<path d="M137.546 38.5519L118.856 59.202" stroke="#054752" stroke-width="0.73421" stroke-linecap="round" stroke-linejoin="round"/>
<path d="M142.596 33.5236L155.228 19.5686" stroke="#054752" stroke-width="0.73421" stroke-linecap="round" stroke-linejoin="round"/>
<path d="M103.706 161.35L91.5825 174.748" stroke="#054752" stroke-width="0.73421" stroke-linecap="round" stroke-linejoin="round"/>
<path d="M99.6652 143.49L77.1841 168.332" stroke="#054752" stroke-width="0.73421" stroke-linecap="round" stroke-linejoin="round"/>
<path d="M327.698 65.2995C335.044 46.9223 326.102 26.0689 307.725 18.7223C289.348 11.3756 268.495 20.3177 261.148 38.6949C253.801 57.0722 262.743 77.9255 281.121 85.2721C299.498 92.6188 320.351 83.6767 327.698 65.2995Z" stroke="#054752" stroke-width="0.73421" stroke-linecap="round" stroke-linejoin="round"/>
<path d="M294.435 83.2854C311.71 83.2854 325.714 69.2813 325.714 52.0064C325.714 34.7315 311.71 20.7274 294.435 20.7274C277.16 20.7274 263.156 34.7315 263.156 52.0064C263.156 69.2813 277.16 83.2854 294.435 83.2854Z" stroke="#054752" stroke-width="0.73421" stroke-linecap="round" stroke-linejoin="round"/>
<path d="M294.435 54.145C295.616 54.145 296.574 53.1875 296.574 52.0064C296.574 50.8252 295.616 49.8677 294.435 49.8677C293.254 49.8677 292.296 50.8252 292.296 52.0064C292.296 53.1875 293.254 54.145 294.435 54.145Z" stroke="#054752" stroke-width="0.73421" stroke-linecap="round" stroke-linejoin="round"/>
<path d="M294.435 54.145V64.6524" stroke="#054752" stroke-width="0.73421" stroke-linecap="round" stroke-linejoin="round"/>
<path d="M292.296 52.0063H266.79" stroke="#054752" stroke-width="0.73421" stroke-linecap="round" stroke-linejoin="round"/>
<path d="M131.688 138.497L119.901 120.201C127.083 108.589 129.518 94.6574 126.7 81.2979C123.881 67.9383 116.026 56.1775 104.764 48.4572C93.5031 40.737 79.701 37.6504 66.2239 39.8383C52.7467 42.0263 40.6299 49.3206 32.3892 60.2069C24.1485 71.0933 20.4171 84.7351 21.9696 98.3002C23.5221 111.865 30.2394 124.311 40.7266 133.054C51.2139 141.797 64.6655 146.165 78.2885 145.251C91.9115 144.338 104.659 138.213 113.885 128.147L131.688 138.497Z" fill="#054752" stroke="#054752" stroke-width="0.73421" stroke-linecap="round" stroke-linejoin="round"/>
<path d="M132.811 134.048L121.016 115.752C128.186 104.145 130.611 90.2234 127.787 76.8766C124.962 63.5297 117.106 51.7832 105.85 44.0759C94.593 36.3686 80.8004 33.2926 67.3356 35.4866C53.8708 37.6805 41.7681 44.9759 33.5404 55.858C25.3127 66.7401 21.5921 80.3729 23.151 93.926C24.7099 107.479 31.4285 119.911 41.912 128.641C52.3955 137.371 65.8385 141.728 79.4498 140.808C93.0611 139.887 105.795 133.76 115.008 123.698L132.811 134.048Z" fill="white" stroke="#054752" stroke-width="0.73421" stroke-linecap="round" stroke-linejoin="round"/>
<path d="M38.6096 95.4235V90.4666L46.7352 77.9779C47.3503 77.0552 47.9297 76.1539 48.4804 75.2884C49.0102 74.4501 49.4604 73.5641 49.8252 72.6419C50.1755 71.7439 50.3526 70.7877 50.3473 69.8237C50.4075 69.0508 50.2005 68.2807 49.7608 67.6421C49.568 67.408 49.3238 67.2217 49.0471 67.0976C48.7704 66.9735 48.4687 66.9151 48.1657 66.9269C47.8441 66.9084 47.5221 66.9546 47.2186 67.0627C46.9152 67.1708 46.6365 67.3386 46.399 67.5563C45.9545 68.0205 45.6561 68.605 45.5407 69.2372C45.376 70.0106 45.2968 70.7998 45.3046 71.5905V73.2499H38.5238V71.4474C38.4987 69.6185 38.8266 67.8019 39.4894 66.0971C40.094 64.5588 41.1676 63.25 42.558 62.3562C44.2201 61.3768 46.1312 60.9022 48.0584 60.9901C51.115 60.9901 53.4182 61.7816 54.968 63.3648C56.5178 64.9479 57.295 67.1534 57.2998 69.9811C57.3127 71.2853 57.0923 72.5813 56.6489 73.8078C56.2016 75.0074 55.6235 76.1539 54.9251 77.2268C54.2098 78.3355 53.4516 79.4871 52.6362 80.6959L46.4204 89.9945H56.3771V95.4235H38.6096Z" fill="#054752" stroke="#054752" stroke-width="0.73421" stroke-linecap="round" stroke-linejoin="round"/>
<path d="M69.3161 95.4235V87.8058H58.8516V82.6415L67.721 61.4265H75.868V82.5986H79.0152V87.8058H75.868V95.4235H69.3161ZM64.1875 82.5486H69.3161V68.4433L64.1875 82.5486Z" fill="#054752" stroke="#054752" stroke-width="0.73421" stroke-linecap="round" stroke-linejoin="round"/>
<path d="M81.626 95.4236L92.0404 61.3979H95.7384L85.281 95.4236H81.626Z" fill="#054752" stroke="#054752" stroke-width="0.73421" stroke-linecap="round" stroke-linejoin="round"/>
<path d="M100.273 95.4236L107.669 66.7339H98.3706V61.3979H114.5V66.226L107.126 95.4236H100.273Z" fill="#054752" stroke="#054752" stroke-width="0.73421" stroke-linecap="round" stroke-linejoin="round"/>
<path d="M45.2188 117.225C44.3847 117.256 43.5589 117.05 42.8369 116.631C42.2018 116.231 41.703 115.647 41.4064 114.958C41.0672 114.159 40.8688 113.307 40.8198 112.44L42.2504 112.011C42.313 112.678 42.4448 113.338 42.6438 113.978C42.799 114.518 43.11 115.001 43.5379 115.365C44.015 115.734 44.6097 115.917 45.2116 115.88C45.875 115.919 46.5278 115.701 47.0356 115.272C47.2725 115.012 47.4527 114.705 47.5648 114.372C47.6768 114.038 47.7183 113.685 47.6865 113.334C47.7001 112.622 47.5008 111.922 47.1143 111.324C46.6554 110.669 46.1253 110.067 45.5335 109.529L42.4435 106.553C41.938 106.077 41.5235 105.512 41.2204 104.887C40.9582 104.295 40.8264 103.653 40.8341 103.005C40.8009 102.487 40.8809 101.968 41.0687 101.484C41.2565 100.999 41.5474 100.562 41.9213 100.202C42.7185 99.5278 43.7396 99.1781 44.7824 99.2217C45.3519 99.2159 45.9189 99.2979 46.4634 99.4648C46.9491 99.6134 47.3912 99.8786 47.7508 100.237C48.1266 100.631 48.4121 101.102 48.5877 101.618C48.8079 102.285 48.9472 102.977 49.0026 103.678L47.572 104.05C47.5312 103.403 47.4111 102.764 47.2144 102.147C47.0656 101.666 46.7675 101.245 46.3632 100.945C45.8888 100.642 45.3303 100.497 44.7681 100.531C44.1263 100.502 43.4951 100.702 42.9871 101.096C42.7408 101.314 42.5482 101.587 42.4242 101.892C42.3001 102.197 42.248 102.527 42.2718 102.855C42.2662 103.304 42.359 103.748 42.5436 104.157C42.8107 104.644 43.1646 105.078 43.5879 105.437L46.6922 108.37C47.3833 109.006 47.9913 109.727 48.5019 110.516C49.0086 111.323 49.2719 112.259 49.2601 113.212C49.2866 113.984 49.109 114.749 48.7451 115.43C48.4187 116.013 47.9187 116.481 47.3145 116.767C46.6596 117.077 45.943 117.233 45.2188 117.225Z" fill="#054752" stroke="#054752" stroke-width="0.73421" stroke-linecap="round" stroke-linejoin="round"/>
<path d="M51.4556 117.011V99.4005H57.8215V100.681H53.1293V107.29H56.956V108.506H53.1293V115.766H57.8716V117.011H51.4556Z" fill="#054752" stroke="#054752" stroke-width="0.73421" stroke-linecap="round" stroke-linejoin="round"/>
<path d="M60.1318 117.011V99.4006H64.1088C65.0049 99.3571 65.8976 99.5391 66.7052 99.9299C67.3233 100.272 67.8036 100.818 68.0642 101.475C68.3588 102.241 68.4998 103.058 68.4791 103.878C68.4838 104.5 68.4093 105.12 68.2574 105.724C68.139 106.267 67.8939 106.774 67.5421 107.204C67.1551 107.633 66.6323 107.916 66.0615 108.005L68.7581 117.011H67.1487L64.5665 108.356H61.7555V117.011H60.1318ZM61.7555 107.14H63.9943C64.5897 107.174 65.183 107.045 65.711 106.768C66.12 106.52 66.427 106.135 66.5765 105.681C66.7698 105.1 66.8594 104.49 66.8411 103.878C66.902 103.027 66.7051 102.177 66.2761 101.439C65.897 100.903 65.1531 100.638 64.0372 100.638H61.7555V107.14Z" fill="#054752" stroke="#054752" stroke-width="0.73421" stroke-linecap="round" stroke-linejoin="round"/>
<path d="M71.3047 117.011V99.4005H72.957V117.011H71.3047Z" fill="#054752" stroke="#054752" stroke-width="0.73421" stroke-linecap="round" stroke-linejoin="round"/>
<path d="M79.194 117.011L75.0669 99.4005H76.6548L79.9808 114.021L83.1066 99.4362H84.6444L80.6675 117.046L79.194 117.011Z" fill="#054752" stroke="#054752" stroke-width="0.73421" stroke-linecap="round" stroke-linejoin="round"/>
<path d="M86.7905 117.011V99.4005H88.4428V117.011H86.7905Z" fill="#054752" stroke="#054752" stroke-width="0.73421" stroke-linecap="round" stroke-linejoin="round"/>
<path d="M95.631 117.225C94.6618 117.294 93.6968 117.043 92.8844 116.51C92.2325 116.012 91.7625 115.313 91.5468 114.522C91.2885 113.619 91.1632 112.684 91.1748 111.746V104.722C91.161 103.755 91.2887 102.791 91.5539 101.861C91.7783 101.084 92.2568 100.404 92.913 99.9299C93.7225 99.4146 94.6727 99.1645 95.631 99.2146C96.5024 99.1688 97.368 99.3802 98.1202 99.8226C98.7287 100.243 99.1832 100.851 99.4148 101.554C99.6913 102.413 99.8242 103.312 99.8082 104.214V105.28H98.2346V104.264C98.2437 103.599 98.1813 102.935 98.0487 102.283C97.9586 101.781 97.6923 101.327 97.2976 101.003C96.8082 100.664 96.2177 100.502 95.6239 100.545C94.9946 100.502 94.3693 100.673 93.85 101.031C93.4365 101.389 93.1546 101.875 93.0489 102.412C92.9031 103.091 92.8336 103.784 92.8414 104.479V111.982C92.8288 112.706 92.913 113.427 93.0918 114.128C93.212 114.655 93.5132 115.123 93.943 115.451C94.4425 115.766 95.0271 115.918 95.6167 115.888C96.2134 115.928 96.8054 115.758 97.2905 115.408C97.6854 115.061 97.9502 114.589 98.0415 114.071C98.1728 113.409 98.2351 112.736 98.2275 112.061V110.909H99.7939V111.954C99.8074 112.88 99.6844 113.803 99.4291 114.693C99.2294 115.435 98.786 116.087 98.1702 116.546C97.4171 117.035 96.528 117.273 95.631 117.225Z" fill="#054752" stroke="#054752" stroke-width="0.73421" stroke-linecap="round" stroke-linejoin="round"/>
<path d="M102.369 117.011V99.4005H108.742V100.681H104.043V107.29H107.87V108.506H104.043V115.766H108.785V117.011H102.369Z" fill="#054752" stroke="#054752" stroke-width="0.73421" stroke-linecap="round" stroke-linejoin="round"/>
<path d="M227.47 197.83H265.788C265.788 197.83 245.045 248.836 248.957 271.617H210.125C210.125 271.617 217.371 213.365 227.47 197.83Z" fill="#054752" stroke="#054752" stroke-width="0.73421" stroke-linecap="round" stroke-linejoin="round"/>
<path d="M194.318 124.614C194.318 124.614 194.697 131.516 207.55 135.543C220.404 139.57 233.45 135.543 240.739 141.266C248.028 146.988 247.835 155.843 245.338 160.256C242.842 164.669 238.815 169.075 250.71 174.254C262.605 179.433 255.502 194.589 250.517 200.154C245.531 205.719 236.927 208.401 227.306 206.484C217.686 204.567 206.399 181.357 194.125 169.076C181.85 156.794 180.348 134.141 188.181 127.647C196.013 121.152 194.318 124.614 194.318 124.614Z" fill="#054752" stroke="#054752" stroke-width="0.73421" stroke-linecap="round" stroke-linejoin="round"/>
<path d="M192.343 99.7868C192.343 99.7868 197.636 97.4764 198.995 101.933C200.354 106.389 200.755 118.634 200.755 118.634L197.894 117.955C197.894 117.955 198.573 104.107 195.448 101.933C192.322 99.7582 189.883 104.651 189.883 104.651L192.343 99.7868Z" fill="#A6A6A6" stroke="#054752" stroke-width="0.73421" stroke-linecap="round" stroke-linejoin="round"/>
<path d="M132.925 248.765L151.007 239.094C151.007 239.094 149.756 220.118 149.935 219.402C150.113 218.687 154.641 181.557 154.641 181.557L142.238 218.33L132.925 248.765Z" fill="#054752" stroke="#054752" stroke-width="0.73421" stroke-linecap="round" stroke-linejoin="round"/>
<path d="M212.864 162.488C212.864 162.488 230.746 172.23 233.15 173.217C235.553 174.204 234.137 186.629 234.137 194.747C234.137 202.865 221.977 271.425 221.977 271.425H131.924C131.924 271.425 147.138 248.099 147.545 242.012C147.953 235.925 145.314 231.054 144.906 225.175C144.498 219.295 153.225 183.381 154.641 181.543C156.057 179.705 162.151 175.055 162.151 175.055L183.653 156.222L193.595 153.991L212.864 162.488Z" fill="#00AFF5" stroke="#054752" stroke-width="0.73421" stroke-linecap="round" stroke-linejoin="round"/>
<path d="M153.182 248.607L150.178 254.787" stroke="#054752" stroke-width="0.73421" stroke-linecap="round" stroke-linejoin="round"/>
<path d="M156.065 230.854C156.065 230.854 151.601 233.894 153.833 235.517C156.065 237.141 157.08 240.589 157.08 240.589L154.219 246.161" stroke="#054752" stroke-width="0.73421" stroke-linecap="round" stroke-linejoin="round"/>
<path d="M177.086 245.631C178.295 245.724 179.568 245.796 180.899 245.832" stroke="#054752" stroke-width="0.73421" stroke-linecap="round" stroke-linejoin="round"/>
<path d="M157.881 240.625C157.881 240.625 162.738 243.872 173.317 245.26" stroke="#054752" stroke-width="0.73421" stroke-linecap="round" stroke-linejoin="round"/>
<path d="M145.779 110.916C144.924 111.334 144.211 111.994 143.728 112.815C143.246 113.635 143.017 114.58 143.068 115.53C143.068 119.063 145.929 125.98 145.929 125.98L147.56 125.444C147.56 125.444 144.577 118.248 144.985 115.666C145.117 114.913 145.454 114.211 145.959 113.637C146.463 113.063 147.116 112.639 147.846 112.411L147.303 110.645L145.779 110.916Z" fill="#A6A6A6" stroke="#054752" stroke-width="0.73421" stroke-linecap="round" stroke-linejoin="round"/>
<path d="M152.767 129.092C153.482 132.668 152.259 135.894 150.085 136.316C147.91 136.738 145.593 134.17 144.906 130.594C144.22 127.017 145.414 123.784 147.589 123.369C149.763 122.955 152.08 125.522 152.767 129.092Z" fill="white" stroke="#054752" stroke-width="0.73421" stroke-linecap="round" stroke-linejoin="round"/>
<path d="M159.369 127.94C160.721 132.503 159.14 137.003 155.836 137.954C152.531 138.905 148.755 136.03 147.396 131.466C146.036 126.903 147.624 122.404 150.929 121.452C154.234 120.501 158.017 123.376 159.369 127.94Z" fill="#054752" stroke="#054752" stroke-width="0.73421" stroke-linecap="round" stroke-linejoin="round"/>
<path d="M171.622 152.817L174.833 163.26L164.276 176.565L162.516 186.843C162.516 186.843 160.764 216.169 161.765 220.69C162.767 225.21 162.767 226.455 162.767 226.455C162.767 226.455 184.582 201.134 195.362 185.591C206.141 170.048 208.644 160.514 208.644 160.514L198.115 154.792L193.109 131.474L171.622 152.817Z" fill="white" stroke="#054752" stroke-width="0.73421" stroke-linecap="round" stroke-linejoin="round"/>
<path d="M188.274 142.711L174.833 163.26L171.085 151.165L188.274 142.711Z" fill="#054752" stroke="#054752" stroke-width="0.73421" stroke-linecap="round" stroke-linejoin="round"/>
<path d="M162.609 186.264L162.509 186.843C162.509 186.843 160.757 216.169 161.758 220.69C162.76 225.211 162.76 226.455 162.76 226.455C162.76 226.455 184.576 201.134 195.355 185.591C196.199 184.375 196.986 183.195 197.737 182.051C184.239 186.671 170.478 186.75 162.609 186.264Z" fill="white" stroke="#054752" stroke-width="0.73421" stroke-linecap="round" stroke-linejoin="round"/>
<path d="M157.324 88.7929C157.324 88.7929 147.274 94.9013 146.187 104.128C145.099 113.355 148.905 123.269 150.4 127.203C151.895 131.137 157.052 146.48 159.763 149.47C162.474 152.46 171.3 156.93 172.795 157.745C174.29 158.561 177.001 158.289 179.311 156.658C181.621 155.027 191.12 143.497 192.615 140.779C194.11 138.061 194.375 132.089 194.375 132.089C194.375 132.089 194.103 120.143 193.567 112.411C193.03 104.679 193.431 97.2045 187.05 90.6884C180.67 84.1722 163.568 84.0363 157.324 88.7929Z" fill="white" stroke="#054752" stroke-width="0.73421" stroke-linecap="round" stroke-linejoin="round"/>
<path d="M193.567 112.411C193.023 104.672 193.431 97.2045 187.05 90.6884C180.67 84.1722 163.568 84.0363 157.324 88.7929C157.324 88.7929 147.274 94.9013 146.187 104.128C145.557 109.493 146.58 115.072 147.832 119.593C150.142 118.162 157.939 113.384 166.687 107.254C177.137 99.9226 180.534 88.5211 180.534 88.5211C180.534 88.5211 181.75 87.8416 181.486 89.3365C181.221 90.8314 177.137 99.6508 175.649 101.01L174.154 102.362C174.154 102.362 175.377 102.09 180.942 108.742C186.507 115.394 189.625 118.112 191.256 118.927C192.123 119.24 193.032 119.417 193.953 119.45C193.846 117.011 193.717 114.55 193.567 112.411Z" fill="#054752" stroke="#054752" stroke-width="0.73421" stroke-linecap="round" stroke-linejoin="round"/>
<path d="M176.851 126.803C177.022 127.797 176.658 128.698 176.028 128.806C175.399 128.913 174.755 128.198 174.598 127.203C174.44 126.209 174.791 125.308 175.42 125.193C176.05 125.079 176.672 125.809 176.851 126.803Z" fill="#054752" stroke="#054752" stroke-width="0.73421" stroke-linecap="round" stroke-linejoin="round"/>
<path d="M161.644 128.97C161.823 129.971 161.458 130.865 160.828 130.98C160.199 131.094 159.548 130.372 159.398 129.37C159.248 128.369 159.584 127.482 160.213 127.368C160.843 127.253 161.472 127.976 161.644 128.97Z" fill="#054752" stroke="#054752" stroke-width="0.73421" stroke-linecap="round" stroke-linejoin="round"/>
<path d="M170.62 120.687C170.62 120.687 175.105 117.161 179.203 120.008" stroke="#054752" stroke-width="0.73421" stroke-linecap="round" stroke-linejoin="round"/>
<path d="M161.529 122.604C161.529 122.604 156.236 120.022 152.567 124.643" stroke="#054752" stroke-width="0.73421" stroke-linecap="round" stroke-linejoin="round"/>
<path d="M162.48 122.726C162.48 122.726 166.143 124.492 166.414 127.883" stroke="#054752" stroke-width="0.73421" stroke-linecap="round" stroke-linejoin="round"/>
<path d="M166.55 137.253C166.55 137.253 168.045 138.333 170.62 137.525" stroke="#054752" stroke-width="0.73421" stroke-linecap="round" stroke-linejoin="round"/>
<path d="M165.47 142.954C168.513 142.822 171.505 142.131 174.297 140.915C179.046 138.876 180.949 136.03 180.949 136.03" stroke="#054752" stroke-width="0.73421" stroke-linecap="round" stroke-linejoin="round"/>
<path d="M167.773 142.818C168.859 143.778 170.258 144.307 171.707 144.306C174.154 144.306 176.321 139.964 176.321 139.964C176.321 139.964 170.077 142.682 167.773 142.818Z" stroke="#054752" stroke-width="0.73421" stroke-linecap="round" stroke-linejoin="round"/>
<path d="M196.006 132.768C199.454 132.768 202.25 128.909 202.25 124.149C202.25 119.389 199.454 115.53 196.006 115.53C192.557 115.53 189.761 119.389 189.761 124.149C189.761 128.909 192.557 132.768 196.006 132.768Z" fill="#054752" stroke="#054752" stroke-width="0.73421" stroke-linecap="round" stroke-linejoin="round"/>
<path d="M198.652 129.242C200.864 129.242 202.658 126.296 202.658 122.661C202.658 119.027 200.864 116.081 198.652 116.081C196.44 116.081 194.646 119.027 194.646 122.661C194.646 126.296 196.44 129.242 198.652 129.242Z" fill="white" stroke="#054752" stroke-width="0.73421" stroke-linecap="round" stroke-linejoin="round"/>
<path d="M150.085 133.333C150.085 133.333 150.128 147.438 153.79 148.662C157.452 149.885 167.502 147.438 167.502 147.438" stroke="#054752" stroke-width="1.46842" stroke-linecap="round" stroke-linejoin="round"/>
<path d="M172.659 147.381C172.659 148.469 171.322 149.348 169.669 149.348C168.017 149.348 166.687 148.469 166.687 147.381C166.687 146.294 168.024 145.414 169.669 145.414C171.314 145.414 172.659 146.294 172.659 147.381Z" fill="#054752" stroke="#054752" stroke-width="0.73421" stroke-linecap="round" stroke-linejoin="round"/>
<path d="M173.51 163.911C173.51 163.911 169.219 171.415 166.207 193.731C163.196 216.048 165.192 220.504 165.192 220.504L160.9 223.143C160.9 223.143 151.98 222.128 155.02 201.034C158.06 179.941 159.748 176.486 159.748 176.486L173.51 163.911Z" fill="#00AFF5" stroke="#054752" stroke-width="0.73421" stroke-linecap="round" stroke-linejoin="round"/>
<path d="M200.691 156.222C200.691 156.222 190.956 179.347 180.813 193.753C170.671 208.158 156.887 228.823 156.887 228.823C156.887 228.823 164.19 225.375 179.612 213.802C195.033 202.229 210.647 175.663 212.271 173.031C213.895 170.399 216.327 164.312 216.327 164.312L200.691 156.222Z" fill="#00AFF5" stroke="#054752" stroke-width="0.73421" stroke-linecap="round" stroke-linejoin="round"/>
<path d="M116.424 258.964C114.044 260.412 111.549 261.661 108.964 262.698C104.4 264.565 103.957 264.236 105.437 265.809C106.918 267.383 114.564 264.565 116.638 263.735C118.713 262.905 122.654 261.661 122.654 261.661C122.654 261.661 127.425 264.357 130.329 265.187C133.233 266.017 136.766 264.772 136.766 264.772C136.766 264.772 136.974 261.453 134.485 259.587C131.995 257.72 126.617 253.364 124.735 253.571C122.854 253.779 116.424 258.964 116.424 258.964Z" fill="white" stroke="#054752" stroke-width="0.73421" stroke-linecap="round" stroke-linejoin="round"/>
<path d="M115.179 253.986C115.179 253.986 112.69 253.364 111.031 254.608C109.371 255.853 107.504 259.794 107.297 260.831C107.089 261.868 107.504 262.491 109.164 261.039C110.823 259.587 113.727 257.512 113.727 257.512L116.216 256.683L115.179 253.986Z" fill="white" stroke="#054752" stroke-width="0.73421" stroke-linecap="round" stroke-linejoin="round"/>
<path d="M121.61 252.119C121.61 252.119 116.603 250.46 115.594 251.912C114.586 253.364 111.031 261.661 112.068 262.283C113.105 262.905 114.557 261.661 116.424 258.964C118.291 256.268 119.328 254.816 119.328 254.816L121.817 254.401L121.61 252.119Z" fill="white" stroke="#054752" stroke-width="0.73421" stroke-linecap="round" stroke-linejoin="round"/>
<path d="M130.501 253.979C130.501 253.979 124.013 248.908 122.389 250.123C120.766 251.339 115.494 259.25 114.886 260.853C114.278 262.455 117.118 261.668 119.342 259.637C121.567 257.605 124.213 255.345 124.213 255.345L129.285 257.984L130.501 253.979Z" fill="white" stroke="#054752" stroke-width="0.73421" stroke-linecap="round" stroke-linejoin="round"/>
<path d="M153.833 257.834C153.833 257.834 145.314 257.426 141.866 256.21C138.418 254.995 131.516 252.355 129.492 252.555C127.468 252.756 119.75 260.266 118.126 261.89C116.502 263.513 116.695 263.95 118.291 264.15C119.886 264.35 123.805 261.689 125.636 260.266C126.769 259.394 127.992 258.646 129.284 258.034C130.74 260.13 132.37 262.099 134.155 263.921C136.18 265.745 141.051 267.161 142.875 266.961C144.035 266.829 145.187 266.626 146.322 266.353L153.225 266.153L153.833 257.834Z" fill="white" stroke="#054752" stroke-width="0.73421" stroke-linecap="round" stroke-linejoin="round"/>
<path d="M213.065 199.203C213.065 199.203 205.561 207.922 205.969 210.969C206.377 214.016 206.577 217.049 206.577 217.049L201.098 250.116C201.098 250.116 196.434 247.885 196.434 249.709V251.54L152.595 256.003L152.188 271.417L221.97 271.618C221.97 271.618 225.417 267.769 225.825 266.346C226.233 264.923 233.936 240.381 235.968 214.617C237.999 188.853 236.983 177.294 235.968 175.277C234.952 173.26 222.986 169.397 222.986 169.397" fill="#00AFF5"/>
<path d="M213.065 199.203C213.065 199.203 205.561 207.922 205.969 210.969C206.377 214.016 206.577 217.049 206.577 217.049L201.098 250.116C201.098 250.116 196.434 247.885 196.434 249.709V251.54L152.595 256.003L152.188 271.417L221.97 271.617C221.97 271.617 225.417 267.769 225.825 266.346C226.233 264.923 233.936 240.381 235.968 214.617C237.999 188.853 236.983 177.294 235.968 175.277C234.952 173.26 222.986 169.397 222.986 169.397" stroke="#054752" stroke-width="0.73421" stroke-linecap="round" stroke-linejoin="round"/>
<path d="M202.722 249.923C202.722 249.923 209.21 254.179 213.065 255.195L202.722 249.923Z" fill="white"/>
<path d="M202.722 249.923C202.722 249.923 209.21 254.179 213.065 255.195" stroke="#054752" stroke-width="0.73421" stroke-linecap="round" stroke-linejoin="round"/>
<path d="M141.866 208.774L146.873 192.701C148.903 190.712 150.681 188.48 152.166 186.056C154.312 182.43 154.312 175.628 153.976 174.419C153.64 173.21 158.36 167.774 159.698 165.836C161.035 163.897 161.808 160.392 159.998 157.824C158.189 155.257 157.28 159.491 156.071 161.451C154.863 163.411 150.628 165.378 150.628 165.378L146.158 169.011C146.158 169.011 138.755 175.506 138.29 176.414C137.825 177.323 136.931 180.191 136.931 180.191L137.539 188.953L133.612 204.21L141.866 208.774Z" fill="white" stroke="#054752" stroke-width="0.73421" stroke-linecap="round" stroke-linejoin="round"/>
<path d="M143.104 163.725C143.104 163.725 146.73 158.003 147.789 156.172C148.847 154.341 150.507 147.109 151.565 147.589C152.624 148.068 153.711 150.45 153.382 153.633C153.053 156.816 149.298 164.054 149.298 164.054L143.104 163.725Z" stroke="#054752" stroke-width="0.73421" stroke-linecap="round" stroke-linejoin="round"/>
<path d="M134.341 199.682L137.517 188.953L136.144 171.729L140.371 163.575L152.001 162.066C152.001 162.066 159.104 165.843 159.712 165.843C160.32 165.843 159.712 167.502 158.353 167.802C156.994 168.103 154.419 167.352 154.419 167.352L158.804 170.213C158.804 170.213 158.503 171.572 157.445 171.872C156.399 172.083 155.335 172.186 154.269 172.18C154.269 172.18 158.046 174.597 157.13 175.041C156.233 175.453 155.256 175.658 154.269 175.642H151.408L149.14 175.341L145.664 176.7C145.664 176.7 148.082 182.895 147.932 185.92C147.781 188.946 144.005 190.927 144.005 190.927" fill="white"/>
<path d="M134.341 199.682L137.517 188.953L136.144 171.729L140.371 163.575L152.001 162.066C152.001 162.066 159.104 165.843 159.712 165.843C160.32 165.843 159.712 167.502 158.353 167.802C156.994 168.103 154.419 167.352 154.419 167.352L158.804 170.213C158.804 170.213 158.503 171.572 157.445 171.872C156.399 172.083 155.335 172.186 154.269 172.18C154.269 172.18 158.046 174.597 157.13 175.041C156.233 175.453 155.256 175.658 154.269 175.642H151.408L149.14 175.341L145.664 176.7C145.664 176.7 148.082 182.895 147.932 185.92C147.781 188.946 144.005 190.927 144.005 190.927" stroke="#054752" stroke-width="0.73421" stroke-linecap="round" stroke-linejoin="round"/>
<path d="M154.434 167.352C154.434 167.352 152.016 165.385 150.657 165.385C149.298 165.385 140.994 166.894 140.994 166.894" stroke="#054752" stroke-width="0.73421" stroke-linecap="round" stroke-linejoin="round"/>
<path d="M154.283 172.187C154.283 172.187 150.356 170.041 149.148 170.041C147.939 170.041 138.418 172.459 138.418 172.459" stroke="#054752" stroke-width="0.73421" stroke-linecap="round" stroke-linejoin="round"/>
<path d="M134.535 196.313L146.802 204.575C146.802 204.575 141.337 233.901 140.801 236.412C140.264 238.922 136.33 245.539 134.363 247.513C132.396 249.487 130.072 249.122 124.7 247.692C119.328 246.261 114.686 241.969 114.85 236.412C115.015 230.854 134.535 196.313 134.535 196.313Z" fill="#00AFF5" stroke="#054752" stroke-width="0.73421" stroke-linecap="round" stroke-linejoin="round"/>
<path d="M71.1329 267.39H67.5708V268.484H71.1329V267.39Z" fill="white" stroke="#054752" stroke-width="0.73421" stroke-linecap="round" stroke-linejoin="round"/>
<path d="M76.0684 267.39H72.5063V268.484H76.0684V267.39Z" fill="white" stroke="#054752" stroke-width="0.73421" stroke-linecap="round" stroke-linejoin="round"/>
<path d="M81.0035 267.39H77.4414V268.484H81.0035V267.39Z" fill="white" stroke="#054752" stroke-width="0.73421" stroke-linecap="round" stroke-linejoin="round"/>
<path d="M85.9464 267.39H82.3843V268.484H85.9464V267.39Z" fill="white" stroke="#054752" stroke-width="0.73421" stroke-linecap="round" stroke-linejoin="round"/>
<path d="M90.8819 267.39H87.3198V268.484H90.8819V267.39Z" fill="white" stroke="#054752" stroke-width="0.73421" stroke-linecap="round" stroke-linejoin="round"/>
<path d="M95.817 267.39H92.2549V268.484H95.817V267.39Z" fill="white" stroke="#054752" stroke-width="0.73421" stroke-linecap="round" stroke-linejoin="round"/>
<path d="M100.753 267.39H97.1904V268.484H100.753V267.39Z" fill="white" stroke="#054752" stroke-width="0.73421" stroke-linecap="round" stroke-linejoin="round"/>
<path d="M105.688 267.39H102.126V268.484H105.688V267.39Z" fill="white" stroke="#054752" stroke-width="0.73421" stroke-linecap="round" stroke-linejoin="round"/>
<path d="M110.623 267.39H107.061V268.484H110.623V267.39Z" fill="white" stroke="#054752" stroke-width="0.73421" stroke-linecap="round" stroke-linejoin="round"/>
<path d="M115.559 267.39H111.997V268.484H115.559V267.39Z" fill="white" stroke="#054752" stroke-width="0.73421" stroke-linecap="round" stroke-linejoin="round"/>
<path d="M120.501 267.39H116.939V268.484H120.501V267.39Z" fill="white" stroke="#054752" stroke-width="0.73421" stroke-linecap="round" stroke-linejoin="round"/>
<path d="M125.437 267.39H121.875V268.484H125.437V267.39Z" fill="white" stroke="#054752" stroke-width="0.73421" stroke-linecap="round" stroke-linejoin="round"/>
<path d="M130.372 267.39H126.81V268.484H130.372V267.39Z" fill="white" stroke="#054752" stroke-width="0.73421" stroke-linecap="round" stroke-linejoin="round"/>
<path d="M135.308 267.39H131.746V268.484H135.308V267.39Z" fill="white" stroke="#054752" stroke-width="0.73421" stroke-linecap="round" stroke-linejoin="round"/>
<path d="M140.243 267.39H136.681V268.484H140.243V267.39Z" fill="white" stroke="#054752" stroke-width="0.73421" stroke-linecap="round" stroke-linejoin="round"/>
<path d="M145.178 267.39H141.616V268.484H145.178V267.39Z" fill="white" stroke="#054752" stroke-width="0.73421" stroke-linecap="round" stroke-linejoin="round"/>
<path d="M153.783 268.256H65.5249V271.36H153.783V268.256Z" fill="white" stroke="#054752" stroke-width="0.73421" stroke-linecap="round" stroke-linejoin="round"/>
<path d="M153.776 268.256H119.943V271.36H153.776V268.256Z" fill="white" stroke="#054752" stroke-width="0.73421" stroke-linecap="round" stroke-linejoin="round"/>
<path d="M93.0632 241.068H23.6743L9.74072 167.28H79.1297L93.0632 241.068Z" fill="#054752" stroke="white" stroke-width="0.73421" stroke-linecap="round" stroke-linejoin="round"/>
<path d="M90.9532 239.201H23.6385L10.4131 169.147H77.7206L90.9532 239.201Z" fill="#054752" stroke="white" stroke-width="0.73421" stroke-linecap="round" stroke-linejoin="round"/>
<path d="M77.9923 233.622H27.9444L18.1094 181.543H68.1572L77.9923 233.622Z" fill="#054752" stroke="white" stroke-width="0.73421" stroke-linecap="round" stroke-linejoin="round"/>
<path d="M18.1095 181.543L10.4131 169.147" stroke="#054752" stroke-width="0.73421" stroke-linecap="round" stroke-linejoin="round"/>
<path d="M68.1572 181.543L77.7205 169.147" stroke="white" stroke-width="0.73421" stroke-linecap="round" stroke-linejoin="round"/>
<path d="M77.9922 233.622L90.953 239.201" stroke="white" stroke-width="0.73421" stroke-linecap="round" stroke-linejoin="round"/>
<path d="M27.9446 233.622L23.6387 239.201" stroke="#054752" stroke-width="0.73421" stroke-linecap="round" stroke-linejoin="round"/>
<path d="M48.2943 218.022H36.8999L44.1528 211.556H55.5472L48.2943 218.022Z" fill="#054752" stroke="white" stroke-width="0.73421" stroke-linecap="round" stroke-linejoin="round"/>
<path d="M86.0964 267.476H44.4102V271.617H86.0964V267.476Z" fill="#054752" stroke="white" stroke-width="0.73421" stroke-linecap="round" stroke-linejoin="round"/>
<path d="M62.2779 271.617H50.8836L36.8999 255.731H48.2943L62.2779 271.617Z" fill="#054752" stroke="white" stroke-width="0.73421" stroke-linecap="round" stroke-linejoin="round"/>
<path d="M48.2943 218.287H36.8999V255.567H48.2943V218.287Z" fill="#054752" stroke="white" stroke-width="0.73421" stroke-linecap="round" stroke-linejoin="round"/>
<path d="M215.118 264.529C216.746 267.484 219.219 269.885 222.221 271.425L215.118 264.529Z" fill="white"/>
<path d="M215.118 264.529C216.746 267.484 219.219 269.885 222.221 271.425" stroke="#054752" stroke-width="0.73421" stroke-linecap="round" stroke-linejoin="round"/>
<path d="M1 271.618H327.316" stroke="#054752" stroke-width="0.73421" stroke-linecap="round" stroke-linejoin="round"/>
</svg>
